<svg xmlns="http://www.w3.org/2000/svg" xml:space="preserve" style="fill-rule:evenodd;clip-rule:evenodd;stroke-linejoin:round;stroke-miterlimit:2" viewBox="0 0 5225 5225"><path d="M2482.976 4382.348c-1.033 2.538-4.553 1.479-4.775 33.82-2.909 22.83-3.345 72.442-3.67 86.829-2.838 49.234-2.691 48.928-3.065 53.172-9.986 113.324-295.128 129.234-408.802 109.718-148.37-25.473-133.626-100.702-132.966-129.344 8.453-48.338 13.73-57.113 42.115-95.461 23.58-28.787 27.65-24.322 42.367-43.379 5.267-1.231 4.529-2.011 62.39-26.04 1.812-.753 8.835-3.293 8.766-13.559-.654-98.018-.003-98.56-4.45-105.767-11.072-17.943-23.57-15.331-23.218-92.385.202-44.226 15.487-41.416 14.938-62.847-13.518-528.362 31.308-538.488 14.175-575.317-17.964-38.617-12.648-40.608-33.112-77.751-29.225-53.043-6.959-124.111-3.744-134.373 4.371-13.951-11.877-49.81 13.796-227.478 8.917-61.711 25.234-110.102 18.154-111.588-23.446-4.92-345.956 149.816-649.969-128.156-74.254-67.893-67.283-92.275-104.753-107.24-25.409-10.148-56.797-48.053-61.949-78.679-5.652-33.598-23.475-17.657-76.117-54.991-61.669-43.736-41.029-66.035-104.483-107.197-33.459-21.704-146.239-85.523-113.315-151.25 23.865-47.643 81.426-2.262 86.886 2.043 21.277 16.775 8.948-6.855 8.28-7.445-3.812-3.366-112.733-87.288-66.896-144.713 52.604-65.903 134.334 76.128 132.615 47.842-.447-7.363-108.351-110.498-26.236-153.291 62.139-32.383 109.779 96.849 124.947 95.158 9.378-1.045-55.624-88.399 5.891-118.712 70.489-34.735 101.5 93.011 159.807 195.589 7.712 13.568 8.745 20.794 13.185 21.049 9.31.535 5.59-50.805 44.623-81.873 42.406-33.753 104.132-1.902 91.577 66.428-2.174 11.833-18.345 99.838-11.903 149.914 1.901 14.781 56.761 23.252 73.526 77.284 2.178 7.02-.797 18.261 11.316 27.249 114.351 84.848 206.04 141.17 482.045 39.851 3.217-1.181 40.626-8.01 13.958-17.268-544.305-188.938-856.375-832.385-409.659-1432.098 89.678-120.392 255.023-270.182 433.445-350.764 39.708-17.934 39.147-22.71 38.709-26.434-1.817-15.46-95.217-166.178-212.357-231.07-95.1-52.683-159.99-62.042-166.087-52.721-108.193 165.417-332.838 14.891-251.813-140.777 64.139-123.228 248.672-91.903 269.633 37.448 2.836 17.502-3.018 23.409 14.026 27.408 334.355 78.428 393.215 340.487 424.98 335.231 15.382-2.545 254.359-109.248 603.869-55.775 61.93 9.475 178.576 43.307 179.775 43.018 14.478-3.494 102.892-217.672 367.161-300.369 2.482-.777 27.833-8.71 28.558-15.533 1.122-10.561-3.605-93.207 78.291-138.76 135.938-75.613 279.448 93.553 177.845 220.788-51.854 64.936-157.343 73.469-215.499 12.883-22.958-23.917-27.445-15.641-59.175-5.716-177.588 55.55-310.981 240.996-300.526 254.175 12.235 15.422 252.321 73.186 471.383 345.979 231.659 288.48 226.306 598.268 231.839 610 63.332 134.276-.205 353.283-85.161 410.666-53.738 36.297-25.789 61.027-152.17 196.098-167.73 179.262-380.602 248.213-381.303 251.327-5.026 22.32 197.948 38.545 260.157 380.242 5.05 27.739 56.102 95.485 84.236 232.548 3.77 18.366 50.467 48.817 27.886 130.95-3.607 13.122 79.193 209.846.45 345.992-17.173 29.692-26.015 21.555-47.545 48.61-39.47 49.599-72.407 18.497-85.839 24.958-5.406 2.6-31.997 24.737-66.527 7.663-25.658-12.687-32.99-45.713-26.613-65.833 38.534-121.574 14.906-134.846 10.758-125.649-.344.762-12.056 67.512-67.251 78.582-11.37 2.28-75.577-4.076-54.611-83.393 16.485-62.364 10.363-63.143 23.703-125.785 3.609-16.948-51.596-53.655-38.414-115.98 4.428-20.936-3.663-39.318-64.827-155.808-19.599-37.328-1.571 15.754 1.546 146.611.751 31.534-4.984 32.235 5.874 58.356 7.56 18.186 17.574 87.642-14.082 134.559-3.502 5.19.849 6.913-28.43 72.911-13.539 30.516 29.139 130.504 14.665 517.218-1.508 40.299-9.883 41.813 7.036 78.53 10.686 23.189 10.409 101.411-8.257 123.686-14.161 16.899-10.765 20.62-13.004 97.501-.078 2.692-.885 30.41 4.625 33.343 26.617 14.163 44.157 17.612 48.207 18.409 13.896 24.396 20.996 17.928 37.442 40.526 47.746 54.241 46.553 92.022 49.796 115.5-3.257 63.796-19.018 107.034-174.462 125.155-139.415 16.252-249.618-27.244-269.87-35.237-90.74-35.814-86.568-58.769-89.323-138.364-1.103-77.4-1.455-77.238-2.705-87.099 1.284-17.655.954-17.445-2.102-34.599.552-2.475 6.522-113.942-8.493-129.169-31.626-32.073-22.025-111.325-13.689-130.619 7.565-17.51 11.62-26.895-23.731-237.244-10.141-60.341-9.187-65.088-20.231-64.481-9.682.533-19.312 1.792-28.98 2.538-57.643 4.445-89.138-10.321-92.007 4.059-6.741 33.788-42.069 273.759-37.381 284.794 3.66 8.614 24.835 58.455 5.058 116.874-8.024 23.702-19.205 23.833-19.958 38.3-5.369 103.282-3.939 107.267-.805 116.002Z" style="fill:#050505;fill-opacity:1"/><path d="M1181.919 4338.272c6.003-3.256 136.108-25.544 150.449.608 5.41 9.866 4.263 10.303 65.194 124.634 11.573 21.715 12.029 26.578 36.246 23.248 346.46-47.641 432.118-45.294 522.264-53.002 9.929-.849 10.259-.496 15.741 7.324-28.385 38.348-33.662 47.123-42.115 95.461-12.633 4.058-14.711-6.735-162.664 32.407-362.062 95.786 181.566 240.495 1010.809 212.978 370.855-12.306 726.015-84.051 636.981-171.268-32.822-32.152-146.264-55.986-153.17-59.224-3.243-23.478-2.05-61.259-49.796-115.5 16.926-7.845 17.887-7.069 232.932 11.126 810.77 68.603 1030.747 245.048 1035.586 248.246 3.143 2.077 2.403 2.387 5.286 4.297 8.623 5.711 7.447 7.589 8.274 7.283 2.867-1.06 3.628-5.414 6.496-6.474 23.82 60.413-3.931 101.336-161.964 168.224-268.636 113.701-913.6 184.756-1048.326 189.043-10.324.329-806.785 65.653-1633.928-21.107-594.907-62.401-1078.608-200.256-962-345.055a260 260 0 0 1 8.894-10.461c4.802 1.566 1.021 5.435 5.82 6.999.455.148.51.166 4.834-3.525 14.528-12.402 15.417-10.305 32.82-18.899 29.505-14.57 163.419-80.699 392.741-122.251 17.414-3.155 18.82 12.231 39.897-.142.431-.317 17.683-8.056 13.879-21.053-7.535-25.743-2.514-25.958 26.509-130.781 5.388-19.46-5.238-21.182-37.688-53.135Z" style="fill:#7245c3;fill-opacity:1"/><path d="M2950.688 2122.197c-275.966-171.406-257.602-462.402-185.163-615.024 137.357-289.398 485.498-307.431 652.949-115.085 349.507 401.469-40.736 971.473-467.786 730.109" style="fill:#f7f6f9"/><path d="M2308.376 2699.478c309.282 89.187 557.266 18.94 621.2 3.251l1.355 3.81c4.836 148.57 101.07 247.934 109.146 258.503-13.92 37.582 47.038 146.181-19.707 373.459-2.896 9.861-2.831 10.407 3.745 18.112-25.837 7.983-171.374 52.953-333.248 56.669-12.209.28-15.972-10.41-29.508-21.294-83.412-67.069-159.008 4.394-168.856 13.704-22.793 21.547-316.023-33.063-386.079-82.74-36.535-25.907 6.517-292.836 23.97-327.845 22.887-5.859 150.375-98.129 177.983-295.629Z" style="fill:#fcfbfc"/><path d="M1877.436 1320.238c446.615-250.497 812.443 259.537 549.429 646.431-53.796 79.134-135.457 126.912-141.106 130.681-1.99-1.538.967-12.438-24.971-5.536-352.977 93.929-702.979-320.204-408.209-727.201 9.577-13.223 8.629-13.338 17.494-22.873 6.932-7.456 10.265-4.546 13.513-14.029 1.914-5.59-8.098-1.782-6.15-7.472Z" style="fill:#fcfcfc"/><path d="M3029.502 3597.558c31.382-13.64 46.051-47.166 48.298-12.871 8.255 126 24.024 211.915 10.453 512.478-.307 6.802 11.33 27.875-88.37 46.241-104.541 19.258-240.814-2.265-245.003-32.028-3.425-24.335-42.209-299.881-40.263-304.532.24-.572 48.133-34.488 72.443-58.191 54.177-52.824-133.216 93.857-372.071-13.076-31.838-14.254 18.389 37.487 44.822 55.445 21.953 14.914 29.882 13.263 26.15 39.938-19.294 137.912-19.719 137.507-36.143 275.892-7.442 62.705-325.454 47.509-331.073-4.732-3.301-30.686-11.575-272.336 7.251-464.17 5.526-56.306 4.158-78.898 14.457-69.516 22.501 20.497 46.181 30.248 32.396 11.853-51.888-69.237-53.681-97.372-47.57-95.56 8.291 2.458 27.996 17.519 92.239 35.589 223.151 62.767 247.53 22.654 280.205 54.504 53.706 52.349 129.821 48.087 176.176-2.352 17.895-19.471 151.771 4.935 364.912-70.184 40.138-14.146 55.243-27.261 48.704-9.369-15.071 41.234-51.401 85.884-56.89 92.629-4.223 5.19-2.145 5.467-1.126 12.013Z" style="fill:#f7f5f9"/><path d="M2474.531 4502.998c19.026 4.571 19.314-3.069 244.564 3.578.768.023.66-.265 8.904-3.584 2.755 79.595-1.417 102.549 89.323 138.364 20.252 7.994 130.455 51.49 269.87 35.237 155.444-18.121 171.205-61.359 174.462-125.155 6.906 3.238 120.348 27.072 153.17 59.224 89.034 87.217-266.125 158.962-636.981 171.268-829.243 27.517-1372.872-117.192-1010.809-212.978 147.953-39.142 150.031-28.349 162.664-32.407-.661 28.642-15.404 103.87 132.966 129.344 113.674 19.516 398.816 3.606 408.802-109.718.374-4.244.227-3.939 3.065-53.172Z" style="fill:#442a84"/><path d="M2441.074 1743.075c-36.27 352.347-514.254 348.385-541.189 4.585-20.051-255.934 319.286-421.498 493.96-177.261 47.768 66.791 47.302 158.355 47.229 172.676m870.266 92.406c-142.759 307.93-541.82 165.871-518.784-126.345 22.093-280.263 405.33-365.773 521.811-82.157 38.678 94.176 2.691 192.83-3.026 208.501Z" style="fill:#060606"/><path d="M2218.639 814.255c10.578 26.783 47.092 111.701 35.528 119.184-13.417 8.682-213.945 89.135-348.42 305.523-.711 1.144-5.232 8.419-12.075 11.726-57.009 27.554-64.095 37.842-86.153 54.082-230.885 195.418-255.538 477.723-109.148 709.925 14.644 23.227 36.064 92.091 133.533 161.325 29.302 20.814 38.268 9.269 58.303 39.373 47.428 71.265 139.115 158.433 245.977 216.603 22.065 12.011 31.114 7.832 27.278 21.324-.588 2.067-2.98.126-18.243 19.721-1.108-1.265 1.142-3.78.034-5.045-.298-.34-268.601-86.086-433.252-322.088-294.353-421.91-96.355-985.533 373.27-1265.607 28.308-16.882 104.93-64.382 133.37-66.045Z" style="fill:#bea4e2"/><path d="M3140.874 2621.704c129.735 75.209 309.662 299.512 358.664 522.956 6.54 29.821-60.421-18.782-213.214 69.341-18.112 10.446-24.276 21.448-32.59 2.313-77.459-178.288-99.822-165.678-120.619-207.98-.758-1.542-36.097-141.668-39.206-153.994-39.951-158.414-9.149-213.202-9.074-213.476 2.427-.752 5.098 1.97 7.525 1.218.995-.308-.746-1.912 10.362-7.895 20.202-10.882 30.732-7.406 32.865-8.027 2.213-.644 3.073-3.812 5.286-4.456Z" style="fill:#f7f5f9"/><path d="M2110.713 2606.704c6.856 6.785 5.408 7.991 13.407 13.268 26.452 17.45 25.181 59.098 31.686 75.481-10.526 51.399-10.272 50.972-24.036 101.874-19.038-4.137-20.89 5.773-50.418 17.737-59.53 24.119-268.364 117.212-474.467-6.539-54.424-32.678-84.543-66.392-126.113-115.326 15.759-11.981 66.371-42.037 106.226-114.883 2.708-4.949 8.345-25.385 19.232-16.058 201.59 172.703 426.167 57.922 504.483 44.447Z" style="fill:#fdfcfd"/><path d="M3055.996 823.326c6.766 2.017 149.102 52.986 263.41 146.058 12.875 10.483 248.238 176.728 341.384 493.564 24.655 83.864 26.382 127.627 30.898 140.455-89.224 30.18-74.237 86.667-92.108 76.813-2.199-1.213-5.981-55.546-20.341-101.285-55.348-176.283-130.511-218.396-142.263-242.869-6.142-12.791-48.206-100.394-90.135-152.759-154.103-192.461-274.219-226.905-321.357-254.169-13.518-7.819 23.927-89.904 30.511-105.808Z" style="fill:#efe2f4"/><path d="M2352.988 2625.683c-11.416-3.026-104.316-27.649-139.407-48.57-45.338-27.031-36.079-68.344-28.82-79.128 23.8-35.357 76.098-4.977 81.477-3.033 41.513 15.006 258.118 93.306 550.023 43.939 192.713-32.592 213.808-72.492 251.974-57.006 23.129 9.385 76.85 87.445-155.443 143.667-268.164 64.904-516.086 9.841-559.806.132Z" style="fill:#9524d0"/><path d="M2998.641 775.369c-37.554 82.061-37.338 90.861-47.149 116.583-9.567 25.085-235.147-112.953-614.147 7.869-19.235 6.132-15.093-28.443-52.265-109.275 30.718-30.57 232.008-70.807 342.922-73.233 200.169-4.378 345.956 46.171 357.908 48.023 1.539.238 3.434-.599 4.657.364 3.298 2.599 4.775 7.07 8.073 9.668Z" style="fill:#f0e8f6"/><path d="M1877.436 1320.238c-1.949 5.69 8.064 1.882 6.15 7.472-3.248 9.483-6.581 6.573-13.513 14.029-8.864 9.535-7.916 9.65-17.494 22.873-294.77 406.998 55.232 821.13 408.209 727.201 25.938-6.902 22.981 3.998 24.971 5.536-166.142 99.484-419.171 97.141-563.767-145.222-109.518-183.566-89.234-474.8 155.444-631.89Z" style="fill:#e6e0ee"/><path d="M2218.639 814.255c-28.44 1.663-105.062 49.163-133.37 66.045-469.625 280.074-667.623 843.698-373.27 1265.607 164.651 236.002 432.955 321.748 433.252 322.088 1.108 1.265-1.142 3.78-.034 5.045-11.082 24.735-12.975 28.507-20.37 25.942-400.361-138.842-718.401-577.975-537.297-1080.328 153.329-425.312 511.373-594.492 605.539-637.344 11.596-5.277 18.914 18.562 25.549 32.944Z" style="fill:#f9f9fa"/><path d="M2531.146 909.505c24.573-2.47 478.29-72.476 763.572 301.915 2.345 3.077 2.428 15.668-9.471 4.951-165.091-148.692-621.65-374.712-1110.34-123.664-136.324 70.032-275.41 210.348-168.889 100.212 27.437-28.367 88.873-102.833 169.059-153.414 151.763-95.731 250.691-114.876 356.069-130" style="fill:#4f4d51"/><path d="M1480.772 2693.199c41.57 48.934 71.689 82.648 126.113 115.326 206.103 123.751 414.938 30.659 474.467 6.539 29.528-11.964 31.38-21.874 50.418-17.737-29.458 115.3-32.318 115.948-40.752 119.184-431.335 165.515-700.88-164.179-693.601-181.603 2.874-6.88 8.449 1.166 83.355-41.71Z" style="fill:#dbd5e6"/><path d="M2533.142 3029.408c-12.031 33.932-20.872 65.453-30.828 66.995-112.152 17.37-116.416 18.562-119.451 9.469-1.018-3.05 112.107-293.403 129.531-303.595 6.085-3.559 135.815-23.697 149.702 13.729 103.829 279.817 124.38 301.134 96.585 297.864-8.573-1.008-8.139-3.509-106.663-16.288-35.094-4.552-51.525-256.18-95.643-136.149-4.325 11.766-21.401 62.529-23.233 67.976Z" style="fill:#050505"/><path d="M3174.417 4395.411c245.334 9.43 328.751 32.529 341.907 19.543 86.439-85.317 95.614-80.135 151.307-68.244 63.45 13.548 73.322 3.517 107.716 58.771 31.405 50.452 32.684 50.745 37.685 51.889 22.978 5.257 23.4 1.031 289.059 57.092 31.727 6.695 248.155 65.387 342.104 130.801 32.711 22.776 31.869 23.426 56.238 55.152-2.867 1.06-3.628 5.414-6.496 6.474-.827.306.349-1.572-8.274-7.283-2.883-1.91-2.143-2.22-5.286-4.297-4.84-3.198-224.816-179.643-1035.586-248.246-215.045-18.196-216.006-18.972-232.932-11.126-16.446-22.599-23.546-16.13-37.442-40.526" style="fill:#36206d;fill-opacity:.99"/><path d="M1181.919 4338.272c-12.298 11.165-20.522 26.518-58.935 101.197-6.215 12.083-9.445 8.362-56.512 24.511-5.394 1.851-14.193 4.87-32.589 63.401-.894 2.845 1.207 7.138 37.25-1.539 59.073-14.221 68.83-29.37 108.086 17.4-21.076 12.373-22.482-3.014-39.897.142-229.322 41.552-363.236 107.681-392.741 122.251-17.403 8.594-18.292 6.497-32.82 18.899-4.324 3.692-4.379 3.674-4.834 3.525-4.799-1.565-1.018-5.434-5.82-6.999 87.424-89.295 278.822-122.035 289.447-139.985 9.445-15.956 20.294-89.242 55.493-104.099 34.908-14.735 42.149-7.29 59.733-41.313 38.556-74.6 35.025-91.144 118.508-98.768 118.836-10.852 123.24 3.631 152.426 57.596 51.917 95.996 53.107 97.151 59.971 97.4 54.881 1.991 82.258-25.368 575.494-54.186-14.717 19.057-18.787 14.593-42.367 43.379-5.483-7.82-5.812-8.173-15.741-7.324-90.146 7.709-175.803 5.362-522.264 53.002-24.218 3.33-24.674-1.532-36.246-23.248-60.932-114.331-59.784-114.768-65.194-124.634-14.34-26.152-144.446-3.863-150.449-.608Z" style="fill:#331e6b;fill-opacity:.99"/><path d="M3618.938 2105.229c-57.444 85.061-160.403 227.486-400.269 335.916-6.458 2.919-69.466 31.402-82.414 32.487-2.279.191-4.896-2.164-6.801-.9-1.413.937 1.947 4.121.534 5.058-10.266-13.689-11.917-11.801-22.733-24.716-11.19-13.361 58.866-23.618 166.665-117.56 101.029-88.043 99.042-126.248 141.482-148.868 92.772-49.446 133.425-143.471 140.155-159.037 8.613-19.92 8.913 37.442 49.886 66.68 9.882 7.052 9.187 7.446 13.496 10.939Z" style="fill:#4119ab"/><path d="M3071.469 790.106c13.731-23.176 13.014-23.558 14.824-25.02 11.547-9.332 600.406 204.418 680.888 837.694 1.722 13.551-10.502 5.057-38.038-2.744-.539-6.428-3.368-40.189-12.888-79.596-132.183-547.15-580.009-691.689-638.675-723.21-2.756-1.481-3.355-5.644-6.111-7.125Z" style="fill:#faf9fa"/><path d="M3071.469 790.106c2.756 1.481 3.355 5.644 6.111 7.125 58.666 31.521 506.492 176.059 638.675 723.21 9.52 39.407 12.35 73.168 12.888 79.596-19.129-.039-18.715.061-37.455 3.366-4.516-12.828-6.243-56.591-30.898-140.455-93.147-316.836-328.509-483.08-341.384-493.564-114.308-93.073-256.644-144.042-263.41-146.058 5.889-13.002 4.708-13.299 15.473-33.22" style="fill:#d5b1ea"/><path d="M2734.484 3528.798c-24.193 1.26-39.378 9.459-34.09-16.624 8.523-42.039-7.345-61.539 4.95-62.878 24.916-2.713 88.944-1.578 246.216-35.246 74.343-15.915 171.565-64.758 173.311-63.982 7.851 3.491 3.733 68.002-10.035 78.071-109.719 80.241-348.965 98.29-380.352 100.658Z" style="fill:#a42bd8"/><path d="M3705.611 1747.593c20.53-34.459 19.559-34.701 26.252-41.708 73.99-77.457 94.99 140.946 39.567 268.083-76.534 175.565-144.459-35.048-65.819-226.375" style="fill:#a02ed8"/><path d="M2465.396 3468.929c-.965 24.479-2.928 24.339 1.605 48.356.413 2.187 1.898 9.906-8.166 9.104-29.424-2.347-263.004-20.977-357.249-92.239-5.039-3.81-21.713-16.418-19.35-76.558.81-20.614 46.464 27.326 183.007 58.869 79.27 18.312 199.534 30.113 202.139 33.609.907 1.216-.144 1.368-1.987 18.86Z" style="fill:#ae63da"/><path d="M2313.783 2657.335c300.095 75.455 543.678 19.926 618.708 2.73-3.124 21.357-2.173 21.091-2.915 42.664-63.934 15.689-311.918 85.936-621.2-3.251.397-3.376 4.027-34.249 5.407-42.143" style="fill:#c4bfd5"/><path d="M2998.641 775.369c-3.298-2.599-4.775-7.07-8.073-9.668-1.223-.964-3.119-.126-4.657-.364-11.952-1.852-157.738-52.401-357.908-48.023-110.914 2.426-312.204 42.663-342.922 73.233-7.696-19.497-16.317-17.323-13.267-38.099.679-4.626 316.484-143.234 723.237-23.367 28.507 8.401 16.134 19.186 3.591 46.289Z" style="fill:#f9f9f9"/><path d="M2908.399 4186.729c99.915-4.367 112.278-5.186 188.85-35.598 19.895-7.902 12.251 68.795-4.939 76.946-102.391 48.554-338.088 37.255-351.537-15.364-15.582-60.964 3.857-59.585 8.188-57.831 76.676 31.056 80.707 27.954 159.438 31.848Z" style="fill:#8956ce"/><path d="M2144.188 4161.149c196.249 58.966 313.68-10.718 318.291-8.594 6.594 3.039 5.556 68.471-14.325 77.91-106.735 50.674-329.205 18.291-342.162-17.359-6.189-17.029-12.584-71.307 4.045-65.394 2.766.984 2.057 1.306 34.151 13.437" style="fill:#8a58cd"/><path d="M2210.724 2660.94c2.644 1.315-.275 8.165 97.652 38.538-27.608 197.5-155.095 289.77-177.983 295.629 3.979-56.655 59.506-197.916 80.331-334.167" style="fill:#aca4c1"/><path d="M2500.872 3448.649c58.895-103.182 187.383-37.909 173.732 48.894-22.131 140.713-227.633 81.253-173.732-48.894" style="fill:#a36bdc"/><path d="M3717.279 1691.3c-1.457-3.105-6.642-3.242-8.099-6.348-.333-.709 5.435.494 1.604-9.657-13.968-37.011-84.922 45.889-38.763 46.601 9.012.139 17.744-13.006 18.917-12.774 3.154.623 4.313 5.481 7.467 6.104-5.735 12.89-25.673 44.409-39.027 115.09-1.938 10.259-14.186 75.087-7.581 130.287 11.664 97.472 55.383 98.644 35.556 107.321-120.978 52.944-126.768-261.757-27.574-390.99 58.081-75.669 115.971-9.578 94.758-5.823-26.673 4.721-27.364 12.277-37.259 20.189Z" style="fill:#a52ad7"/><path d="M3618.938 2105.229c4.784 1.16 40.88 4.166 31.708 18.36-48.12 74.47-137.578 205.359-360.778 324.316-48.04 25.603-137.941 58.306-144.548 59.645-2.562.519-6.087 1.494-15.333-29.76 1.413-.937-1.947-4.121-.534-5.058 1.906-1.264 4.522 1.091 6.801.9 12.949-1.085 75.956-29.568 82.414-32.487 239.866-108.431 342.825-250.855 400.269-335.916Z" style="fill:#f8f8fa"/><path d="M3030.631 2670.992c-11.537 136.398 30.634 206.537 48.812 322.897-5.402-2.144-7.2.711-39.366-28.847-8.076-10.569-104.31-109.933-109.146-258.503 23.445-14.977 56.411-16.254 99.699-35.547Z" style="fill:#a8a0be"/><path d="M3329.596 4879.161c79.231-74.987 304.114-59.66 342.301.523-52.052 51.008-284.421 52.965-342.301-.523" style="fill:#4f2f96"/><path d="M1540.423 2472.821c6.187 5.177 62.541 34.415-7.017 124.091-44.588 57.485-160.389 140.963-205.193 88.222-2.201-2.59-29.928-35.23-15.778-39.449 15.61-4.655 81.768-10.647 159.203-91.625 59.172-61.879 43.522-99 68.785-81.238Z" style="fill:#9262d3"/><path d="M2478.201 4416.168c66.922-2.875 66.696-1.209 247.093-.276 1.25 9.861 1.603 9.699 2.705 87.099-8.245 3.319-8.137 3.607-8.904 3.584-225.25-6.647-225.538.993-244.564-3.578.325-14.387.761-63.999 3.67-86.829" style="fill:#673bbb"/><path d="M3040.077 2965.042c32.166 29.558 33.964 26.703 39.366 28.847 15.77 37.218 39.261 227.308 33.701 296.041-1.862 23.02 3.483 36.167-89.028 66.683-6.576-7.705-6.641-8.252-3.745-18.112 66.745-227.278 5.786-335.876 19.707-373.459Z" style="fill:#dbd5e7"/><path d="M3430.631 3193.961c15.765-2.27 46.383-10.619 86.795-.638 21.507 5.312 23.133 57.302 16.587 64.515-3.708 4.086-137.78-.795-237.767 72.222-3.396 2.48-18.059 23.762-32.95-21.563-22.025-67.037 128.623-104.435 167.336-114.536Z" style="fill:#9363d3"/><path d="M3831.218 4751.033c32.597-51.18 245.308-70.007 327.995 6.445-74.314 53.613-282.532 38.952-327.995-6.445" style="fill:#4f2e96"/><path d="M1181.919 4338.272c32.45 31.953 43.076 33.675 37.688 53.135-29.023 104.824-34.044 105.038-26.509 130.781 3.804 12.997-13.448 20.736-13.879 21.053-39.256-46.77-49.013-31.621-108.086-17.4-36.043 8.677-38.144 4.385-37.25 1.539 18.396-58.531 27.195-61.55 32.589-63.401 47.067-16.149 50.297-12.428 56.512-24.511 38.413-74.679 46.637-90.031 58.935-101.197Z" style="fill:#502f98"/><path d="M2657.711 2261.969c113.957-53.923 76.009-113.509 105.803-116.796 25.345-2.796 13.816 34.159 12.879 37.163-48.825 156.504-314.299 178.989-359.389-9.462-6.401-26.75 22.51-37.144 26.33-18.737 23.106 111.329 122.274 137.976 214.377 107.833Z" style="fill:#363436"/><path d="M2562.413 3279.68c-1.025-5.308-6.926-79.746-51.197-39.133-4.138 3.796-26.611 14.136-33.119-61.887-3.612-42.2 26.498-12.746 44.235-7.188 108.659 34.053 156.883-41.077 153.837-2.496-6.673 84.532-40.5 69.418-58.162 81.757-17.823 12.452-27.677 109.43-55.595 28.947Z" style="fill:#e735d5"/><path d="M3329.596 4879.161c-73.138-86.462 290.006-126.581 351.509-37.17 11.235 16.333-7.062 35.45-9.208 37.693-38.188-60.184-263.071-75.511-342.301-.523" style="fill:#2e1a63"/><path d="M3831.218 4751.033c-11.986-10.039-15.95-9.814-12.285-25.118 21.333-89.087 418.481-59.433 340.28 31.563-82.687-76.453-295.398-57.625-327.995-6.445" style="fill:#2f1c67"/><path d="M983.849 4765.724c68.125-59.48 229.967-42.564 257.285-.003-42.979 36.458-206.579 40.337-257.285.003" style="fill:#492c90"/><path d="M3130.4 4431.388c9.408 5.987 76.176 48.47 78.347 115.294.6 18.459-26.211 23.002-30.506 10.096-.107-.321-6.962-58.188-82.288-90.299-96.198-41.009-160.091 5.122-168.013-2.199-14.102-13.033 27.657-37.401 67.71-47.219 64.843-15.895 124.8 10.026 134.75 14.328Z" style="fill:#464446"/><path d="M2052.307 4434.699c9.368-5.125 67.075-36.693 131.205-24.535 40.506 7.679 83.191 32.422 67.371 44.543-6.709 5.141-176.825-51.736-234.203 90.959-5.377 13.373-35.304 16.473-36.48-3.823-3.263-56.299 63.542-101.366 72.107-107.144" style="fill:#454345"/><path d="M2952.667 1659.237c-77.087-51.754-20.725-116.884 18.465-120.175 101.045-8.485 85.78 157.318-18.465 120.175" style="fill:#fafafb"/><path d="M2053.086 1655.483c-62.973-51.625-10.969-111.286 23.961-114.893 113.781-11.751 77.43 171.488-23.961 114.893" style="fill:#fafafa"/><path d="M2619.823 3528.301c-75.604 64.2-134.496-82.142-44.612-96.312 44.367-6.995 90.542 48.175 44.612 96.312" style="fill:#fcfbfd"/><path d="M983.849 4765.724c-73.858-72.547 236.981-98.637 269.227-29.67 6.828 14.604-9.946 28.066-11.942 29.667-27.318-42.561-189.16-59.477-257.285.003" style="fill:#2c1a63"/><path d="M2482.976 4382.348c14.599 2.543 229.551 2.042 240.216-1.055 3.055 17.154 3.386 16.944 2.102 34.599-180.397-.932-180.171-2.598-247.093.276.222-32.341 3.742-31.282 4.775-33.82" style="fill:#301d6c;fill-opacity:.98"/><path d="M3255.356 2652.88c-16.329-14.384-30.517-28.03-63.471-52.071-21.305-15.543-39.965-22.664-40.385-22.991-15.448-12.015 17.155-12.942 93.842 32.632 90.241 53.629 150.595 194.814 150.853 195.961.213.943-2.204 13.911-11.922-1.975-27.896-45.602-44.381-68.068-128.918-151.556Z" style="fill:#a14ada"/><path d="M3717.521 4389.967c-1.483 1.408-16.448 11.636-35.711 48.084-57.763-7.692-57.425-7.383-115.7-13.212-18.743-1.875 14.784-25.028 39.577-45.822 15.726-13.189 41.591-4.273 111.834 10.95" style="fill:#7442c2"/><path d="M1236.426 2352.508c5.524-5.216 25.787-28.784 68.141-46.397 2.465-1.025 31.108-12.937 32.584 7.23.747 10.208-27.421 20.844-27.44 20.854-79.006 41.273-97.43 128.742-116.322 112.863-25.059-21.063 37.388-88.454 43.037-94.549Z" style="fill:#1d1c1d"/><path d="M2526.376 4938.562c-69.872-61.997 203.354-76.083 159.993-4.883-.289.474 0 0-5.085 4.724-61.508-48.454-141.068-18.238-154.909.159Z" style="fill:#2f1c67"/><path d="M2526.376 4938.562c13.841-18.398 93.401-48.614 154.909-.159-76.146 44.037-145.864 6.353-154.909.159" style="fill:#4b2e90"/><path d="M2932.491 2660.065c37.397-11.144 58.943-16.655 96.648-32.751 13.079-5.583 8.171 5.848 1.491 43.678-43.288 19.293-76.255 20.57-99.699 35.547l-1.355-3.81c.742-21.573-.209-21.307 2.915-42.664" style="fill:#7f7a9d"/><path d="M1666.756 4853.104c-35.941-32.956-112.658-27.293-140.635 2.159-6.695-4.613-7.759-3.257-9.716-8.97-20.604-60.146 208.201-53.701 150.35 6.811Z" style="fill:#2f1c67"/><path d="M2313.783 2657.335c-1.379 7.894-5.01 38.767-5.407 42.143-97.927-30.372-95.008-37.223-97.652-38.538 2.43-30.547 2.274-30.367 2.625-32.991 1.111-8.298 6.091-2.683 100.434 29.386" style="fill:#837ca2"/><path d="M1666.756 4853.104c-48.409 32.429-117.777 16.987-140.635 2.159 27.977-29.451 104.694-35.115 140.635-2.159" style="fill:#4b2c91"/><path d="M1380.802 4638.58c-28.108-63.161 181.222-45.873 130.596-.003-1.437-.73-2.962 2.736-4.399 2.006-.787-.4-4.665-11.833-39.219-16.184-46.415-5.844-65.765 8.582-86.978 14.181" style="fill:#311c6b"/><path d="M1357.177 2390.898c31.691-72.932 68.199-59.887 70.18-56.703 7.932 12.749-2.533 10.847-16.324 23.893-44.676 42.26-31.625 91.951-40.56 99.309-4.188 3.449-31.026 6.517-13.295-66.498Z" style="fill:#464345"/><path d="M1241.164 2240.633c-7.757 3.248-9.844 6.38-19.576-4.882-56.061-64.876-48.6-95.279-96.787-90.597-12.232 1.188-21.609-17.317-9.142-29.292 21.459-20.612 62.256 33.801 65.924 38.693 31.611 42.16 28.667 43.778 59.58 86.078Z" style="fill:#1d1b1c"/><path d="M3541.932 4628.213c-55.402-45.652 140.949-57.553 123.382-9.697-3.002 8.178-4.694 6.522-12.26 11.4-38.535-36.014-101.173-9.442-101.211-9.395-2.423 2.98-2.731 7.622-5.766 9.978-1.247.967-2.899-3.253-4.146-2.285Z" style="fill:#361e6f"/><path d="M2279.616 2532.649c38.4 11.206 106.8 25.003 82.488 46.533-17.431 15.436-141.188-25.778-95.913-46.518 2.158-.989 12.355-.107 13.425-.014Z" style="fill:#fcf5fc"/><path d="M1380.802 4638.58c21.213-5.599 40.563-20.024 86.978-14.181 34.554 4.35 38.432 15.784 39.219 16.184 1.437.73 2.962-2.736 4.399-2.006-44.854 24.373-94.344 22.47-130.596.003" style="fill:#4b2c92"/><path d="M2110.713 2606.704c4.028-2.125 57.156-30.16 56.831-3.26-.303 25.113.097 43.913-11.738 92.009-6.505-16.383-5.234-58.031-31.686-75.481-7.999-5.277-6.551-6.483-13.407-13.268" style="fill:#8d86a6"/><path d="M3435.045 3672.677c.248-3.118-4.23-3.611.828-10.391 48-64.336 34.664-111.276 44.417-130.004.784-1.506 16.116-18.208 16.155 13.764.107 88.7-51.817 120.721-61.4 126.63Z" style="fill:#3b3939"/><path d="M1974.93 4880.133c2.975-4.74 19.014-30.296 68.324-15.008 61.273 18.997-58.562 61.22-68.324 15.008" style="fill:#462b8b"/><path d="M3717.521 4389.967c14.916 5.321 14.048 9.936 24.416 24.528 1.697 2.388 20.319 28.597 19.968 30.698-1.06 6.345-4.176 3.932-80.095-7.141 19.263-36.448 34.228-46.677 35.711-48.084Z" style="fill:#5832a5"/><path d="M3541.932 4628.213c1.247-.967 2.899 3.253 4.146 2.285 3.035-2.355 3.343-6.997 5.766-9.978.038-.047 62.676-26.619 101.211 9.395-29.727 16.179-83.162 15.103-111.123-1.703Z" style="fill:#4d2c94"/><path d="M1118.78 2401.902c-19.297 24.085-23.453 3.316-62.605-18.795-43.051-24.314-63.472-14.199-52.95-31.402 16.122-26.358 74.888 31.962 115.555 50.197" style="fill:#1d1c1d"/><path d="M3717.279 1691.3c-10.349 11.648-10.129 11.335-18.874 23.927-3.154-.623-4.313-5.481-7.467-6.104-1.173-.232-9.905 12.913-18.917 12.774-46.159-.712 24.795-83.612 38.763-46.601 3.831 10.151-1.937 8.948-1.604 9.657 1.457 3.105 6.642 3.242 8.099 6.348Z" style="fill:#f090f2"/><path d="M1294.698 4439.068c23.78 22.913 29.559 21.547 30.25 54.53.4 19.057-19.421 19.124-26.97.248-1.67-4.175-16.249-40.628-17.222-53.507-.787-10.42 4.88-6.189 13.942-1.27Z" style="fill:#55319e"/><path d="M1622.312 316.048c-48.928 2.375-4.002-58.338 18.87-32.395 14.246 16.159-16.177 31.075-18.87 32.395" style="fill:#302f31"/><path d="M3517.197 273.086c29.557-12.428 28.868 17.201 23.991 24.067-16.151 22.742-55.806 5.063-23.991-24.067" style="fill:#343335"/><path d="M3140.874 2621.704c-2.213.644-3.073 3.812-5.286 4.456-2.133.621-12.662-2.855-32.865 8.027-11.108 5.983-9.367 7.586-10.362 7.895-2.427.752-5.098-1.97-7.525-1.218 10.999-58.057 39.707-31.527 56.038-19.161Z" style="fill:#9993ad"/><path d="M2405.57 2596.613c-34.954-7.025-17.589-38.035 5.33-27.961 1.339.589 11.103 4.88 9.703 15.496-.984 7.46-13.562 11.94-15.034 12.465Z" style="fill:#fcf6fd"/><path d="M3550.415 3584.01c-19.285 1.547-7.983-9.449-5.612-28.431 3.504-28.061-1.567-41.453 10.364-32.751 10.489 7.649-3.408 56.461-4.752 61.182" style="fill:#323031"/><path d="M3738.341 1721.934c21.272-13.399 22.349 11.746 13.683 24.213-7.501 10.791-37.366 6.05-13.683-24.213" style="fill:#f9dafc"/><path d="M1094.796 2144.73c-.805-10.236-1.687-10.688-.867-11.017 2.328-.932 6.354 1.199 6.551 3.699.242 3.079-5.927 4.238-5.684 7.317Z" style="fill:#080601"/><path d="M1027.546 1784.807c-39.33 6.932-83.132 57.486-89.155 102.838-.261 1.549-2.294 1.549-2.542 0-6.01-45.336-49.825-95.906-89.155-102.838-1.343-.301-1.343-2.647 0-2.932 39.33-6.947 83.145-57.471 89.155-102.853.261-1.549 2.294-1.549 2.542 0 1.983 14.942 8.062 30.444 16.728 44.764 17.655 29.172 46.05 53.44 72.44 58.089 1.343.301 1.33 2.647 0 2.932" style="fill:#ae35be;fill-rule:nonzero"/><path d="M3965.046 2550.167c-39.33 6.932-83.132 57.486-89.155 102.838-.261 1.549-2.294 1.549-2.542 0-6.01-45.336-49.825-95.906-89.155-102.838-1.343-.301-1.343-2.647 0-2.932 39.33-6.947 83.145-57.471 89.155-102.853.261-1.549 2.294-1.549 2.542 0 1.983 14.942 8.062 30.444 16.728 44.764 17.655 29.172 46.05 53.44 72.44 58.089 1.343.301 1.33 2.647 0 2.932" style="fill:#623bb5;fill-rule:nonzero"/><circle cx="4047.917" cy="1097.917" r="35.417" style="fill:#ea40d7"/><circle cx="1625.497" cy="3472.118" r="35.417" style="fill:#ea40d7"/><circle cx="1662.35" cy="4019.577" r="20.833" style="fill:#623bb5"/><circle cx="1098.398" cy="2981.988" r="22.917" style="fill:#623bb5"/><circle cx="1204.361" cy="873.179" r="18.75" style="fill:#623bb5"/><circle cx="4215.308" cy="1818.661" r="35.417" style="fill:#623bb5"/><circle cx="4382.277" cy="3254.664" r="22.917" style="fill:#623bb5"/><path d="M3904.795 3891.667c29.549 0 53.539 23.99 53.539 53.539s-23.99 53.539-53.539 53.539-53.539-23.99-53.539-53.539 23.99-53.539 53.539-53.539m0 26.769c14.774 0 26.769 11.995 26.769 26.769s-11.995 26.769-26.769 26.769-26.769-11.995-26.769-26.769 11.995-26.769 26.769-26.769" style="fill:#ea40d7"/></svg>