<svg xmlns="http://www.w3.org/2000/svg" xmlns:xlink="http://www.w3.org/1999/xlink" width="100%" height="100%" version="1.1" viewBox="0 0 5225 5225" xml:space="preserve" style="fill-rule:evenodd;clip-rule:evenodd;stroke-linejoin:round;stroke-miterlimit:2"><g id="Background"><path d="M2745.325,4374.637c-0.247,-21.785 -47.72,-55.418 -25.952,-131.186c7.347,-25.572 -2.079,-65.135 -29.005,-255.623c-0.151,-1.07 -1.441,-10.193 -9.024,-10.058c-56.246,0.996 -55.987,3.185 -112.24,0.091c-22.201,-1.221 -18.318,9.37 -28.649,76.402c-2.189,14.201 -25.561,165.854 -22.135,178.243c32.311,116.83 -32.605,113.354 -23.512,142.3c0.131,0.419 0,-0 4.236,3.483c-0.823,3.069 -5.257,4.274 -6.081,7.343c-0.751,2.801 -3.286,12.248 0.263,36.248c-4.482,12.236 -6.429,17.55 -9.303,162.618c-0.7,14.063 33.14,139.652 -236.535,166.186c-15.856,1.56 -223.661,17.566 -268.36,-75.187c-9.028,-18.733 -5.787,-19.194 -8.24,-40.055c15.027,-146.219 145.35,-156.181 147.314,-178.585c1.137,-12.967 0.377,-12.707 -3.446,-25.061c-0.015,-16.401 5.118,-17.14 -5.345,-41.669c2.593,-6.742 4.764,-6.348 3.294,-24.725c-0.75,-9.369 -49.758,-63.77 -22.813,-132.717c21.65,-55.399 -28.325,-126.784 23.517,-525.864c1.408,-10.838 -7.539,-24.849 -13.385,-40.734c-46.008,-125.023 -42.624,-126.303 -40.731,-147.861c3.383,-38.529 7.157,-37.969 4.151,-76.516c-11.025,-141.381 24.702,-284.026 19.194,-289.128c-4.435,-4.108 -5.283,-1.163 -34.302,6.884c-247.329,68.589 -484.43,-52.183 -585.069,-269.447c-19.234,-41.523 -52.045,-50.459 -48.425,-121.965c2.133,-42.125 -34.036,-27.046 -89.363,-143.39c-53.555,-112.616 -117.885,-183.959 -76.425,-227.717c53.633,-56.605 108.057,68.923 116.205,69.052c26.353,0.417 -85.361,-104.774 -35.517,-161.825c63.626,-72.827 133.048,99.492 133.634,99.65c29.051,7.873 -69.204,-114.88 -2.082,-152.171c90.496,-50.277 136.099,195.389 159.408,198.245c2.916,0.357 29.115,-53.006 22.701,-62.922c-8.931,-13.807 -10.433,-12.239 -20.336,-25.456c-309.061,-412.476 -204.526,-1054.006 312.068,-1386.55c203.609,-131.068 320.4,-132.712 311.145,-155.538c-54.312,-133.966 -150.02,-219.462 -167.22,-234.826c-66.954,-59.81 -189.147,-116.404 -206.715,-95.542c-80.868,96.035 -192.855,45.625 -224.628,-13.084c-76.57,-141.484 109.078,-265.113 211.45,-161.361c39.048,39.575 37.569,77.736 39.662,91.435c2.178,14.256 50.507,18.027 108.411,46.83c182.03,90.549 259.949,248.895 285.523,295.153c23.526,42.555 14.162,64.201 51.999,55.827c373.646,-82.69 576.534,5.001 601.672,-6.085c10.036,-4.426 102.817,-281.789 388.651,-375.286c23.227,-7.598 19.124,-13.074 21.687,-31.851c9.387,-68.765 84.745,-129.099 161.236,-111.12c165.928,39 118.904,269.312 -30.302,262.947c-71.872,-3.066 -101.715,-49.55 -107.843,-54.32c-8.909,-6.934 -111.41,18.949 -221.503,123.992c-50.828,48.497 -118.341,153.473 -135.692,201.605c-3.416,9.476 26.049,13.974 51.252,22.001c902.651,287.5 1003.192,1410.767 290.008,1787.041c-174.106,91.858 -252.587,81.795 -219.512,101.045c133.669,77.798 310.91,353.827 366.58,560.253c23.669,87.765 39.023,86.305 28.475,137.332c-6.593,31.892 0.853,33.703 6.241,50.2c65.635,200.981 -20.271,333.381 -93.704,334.171c-20.236,0.218 -20.925,-0.531 -36.41,12.637c-18.212,15.487 -46.198,14.752 -60.079,5.143c-42.908,-29.703 -17.725,-78.384 -12.6,-96.637c10.305,-36.701 5.496,-84.153 -2.54,-79.544c-1.12,0.642 -26.326,83.647 -77.283,75.624c-71.923,-11.324 -27.394,-98.342 -22.402,-148.902c3.36,-34.031 12.345,-38.154 -11.176,-62.909c-29.556,-31.106 -30.504,-80.395 -39.316,-109.595c-4.28,-14.181 -13.703,-15.207 -12.845,-5.737c5.402,59.606 -5.949,59.719 0.391,86.299c2.169,9.095 15.08,63.222 -8.932,116.531c-17.051,37.855 -12.321,39.277 -29.232,77.173c-14.183,31.784 -10.006,32.641 -5.583,67.037c22.282,173.262 11.75,431.751 10.221,469.271c-0.486,11.927 20.273,39.064 12.745,86.866c-8.719,55.372 -39.449,51.495 -24.898,84.826c-7.952,21.532 -6.487,21.744 -4.119,44.259c-15.591,48.266 17.413,36.359 65.517,72.747c102.1,77.232 72.217,161.41 70.276,170.619c-55.22,114.692 -300.974,80.476 -368.184,61.94c-153.059,-42.214 -135.74,-110.412 -138.041,-143.756c-0.317,-13.498 -3.344,-142.537 -9.435,-168.504c0.948,-9.746 -2.295,-42.829 -2.659,-46.541Z" style="fill:#030405"/><path d="M3127.85,4428.132c490.486,36.069 764.65,117.661 981.973,203.076c150.83,59.281 225.572,129.69 242.005,145.171c8.565,8.069 9.425,6.415 19.374,13.185c-86.462,156.329 -892.207,286.207 -1888.835,271.424c-785.175,-11.647 -1529.682,-118.564 -1614.139,-269.872c3.163,-2.366 3.841,0.605 6.813,-1.618c2.143,-1.603 -0.672,-2.289 0.757,-4.044c2.456,-3.014 5.992,-4.969 8.787,-7.672c102.155,-98.741 249.904,-167.613 622.676,-251.699c336.925,-76.001 580.117,-86.133 607.395,-94.286c3.823,12.354 4.583,12.093 3.446,25.061c-1.964,22.405 -132.287,32.367 -147.314,178.585c-81.434,0.486 -442.542,99.583 -100.186,187.15c429.038,109.738 1487.446,65.242 1467.756,-89.867c-2.888,-22.748 -19.2,-32.104 -74.715,-61.227c1.941,-9.209 31.824,-93.387 -70.276,-170.619c-48.104,-36.388 -81.108,-24.481 -65.517,-72.747Z" style="fill:#6b49b2"/><path d="M1832.895,1464.929c403.996,-267.235 857.708,135.385 672.845,582.76c-4.046,9.792 -25.209,61.005 -70.782,111.944c-63.156,70.591 -102.867,88.945 -151.13,114.462c-7.869,-7.848 -6.31,-11.811 -15.75,-9.967c-190.536,37.214 -434.726,-90.666 -509.812,-297.262c-109.893,-302.365 93.429,-479.631 83.699,-494.782c-2.081,-3.24 -6.99,-3.913 -9.071,-7.154Z" style="fill:#fcfcfc"/><path d="M2930.614,2844.969l1.031,4.661c12.703,68.397 30.53,161.767 111.841,255.411c5.024,5.149 20.693,21.754 22.485,23.653c-2.361,6.031 -5.436,5.008 -4.481,11.446c9.271,62.49 13.54,233.996 -15.231,331.622c-9.335,31.675 -14.842,40.4 -14.697,41.336c0.634,4.091 11.668,6.531 12.8,6.781c1.533,0.339 2.853,-2.059 4.386,-1.72c-5.124,1.911 -10.906,4.8 -36.305,13.537c-123.668,42.54 -285.848,49.934 -295.431,48.262c-6.966,-1.215 -92.574,-94.52 -180.26,-7.282c-30.502,30.346 -407.133,-45.19 -415.459,-100.626c-20.041,-133.438 18,-296.338 23.864,-321.449c2.831,-1.635 4.556,1.272 38.825,-27.301c6.381,-7.603 55.495,-66.128 72.359,-100.79c6.299,-12.948 49.309,-101.351 54.921,-171.403l0.734,-2.214c35.801,16.596 243,58.626 435.596,35.644c13.992,-1.67 155.852,-18.598 173.599,-29.831c3.817,-2.416 5.607,-7.321 9.424,-9.737Z" style="fill:#fbfbfc"/><path d="M3457.851,1465.785c-14.264,5.942 -15.286,4.971 -15.406,6.298c-0.067,0.74 224.465,267.117 47.273,567.582c-143.035,242.545 -410.614,232.756 -451.144,231.273c-21.613,-0.791 -21.974,-2.475 -25.525,0.754c-2.317,2.108 -3.201,5.499 -5.519,7.608c-413.554,-200.745 -322.159,-760.866 51.91,-877.151c228.126,-70.917 391.363,59.11 398.41,63.637Z" style="fill:#fcfcfc"/><path d="M2238.077,3679.061c133.397,37.712 214.101,39.718 284.999,45.164c17.712,1.361 24.909,20.816 52.054,31.591c84.522,33.55 120.44,-30.371 147.172,-31.726c259.875,-13.171 350.787,-74.815 362.397,-73.956c1.774,0.131 5.595,1.279 -3.267,21.995c-28.414,66.412 -61.285,79.084 -33.751,78.371c17.31,-12.547 16.384,-19.826 27.548,-13.914c1.738,0.921 24.249,146.756 20.691,363.326c-2.085,126.887 -8.097,130.535 -17.49,136.236c-78.435,47.599 -200.659,32.956 -218.161,30.859c13.146,-51.991 -53.939,-285.863 -6.931,-372.008c24.615,-45.109 70.525,-82.464 37.209,-70.822c-334.335,116.828 -549.015,-15.943 -551.347,-0.075c-4.092,27.84 75.67,33.569 64.145,168.493c-20.088,235.163 -19.801,234.997 -23.414,255.176c-0.285,1.594 -0.975,5.447 10.897,17.057c-10.117,1.558 -74.926,11.537 -127.899,3.78c-60.635,-8.879 -98.995,-29.572 -106.317,-36.864c-14.157,-14.097 -20.815,-252.669 2.306,-438.305c3.719,-29.86 3.404,-66.326 21.389,-53.883c5.67,3.922 11.081,8.209 16.751,12.132c5.486,5.118 16.714,15.594 81.927,45.633c88.456,40.744 -29.284,-44.224 -40.908,-118.259Z" style="fill:#fcfcfc"/><path d="M2109.312,4390.128c10.463,24.53 5.33,25.269 5.345,41.669c-27.278,8.154 -270.47,18.285 -607.395,94.286c-372.772,84.087 -520.521,152.959 -622.676,251.699c-2.796,2.702 -6.331,4.657 -8.787,7.672c-1.429,1.754 1.386,2.441 -0.757,4.044c-2.972,2.223 -3.65,-0.747 -6.813,1.618c-43.73,-58.328 76.55,-129.28 247.159,-200.314c17.471,-7.274 10.644,-13.751 52.75,-174.008c14.06,-53.513 31.672,-51.138 72.586,-84.202c14.948,-12.079 56.264,-200.082 74.467,-231.883c23.33,-40.758 188.889,-91.585 197.434,-93.877c42.455,-11.391 54.602,-13.219 176.895,135.528c20.038,24.372 22.028,22.777 53.154,28.062c49.336,8.376 52.465,14.158 105.602,129.085c47.38,102.476 41.324,115.059 62.709,112.362c182.185,-22.98 182.613,-18.952 198.328,-21.741Z" style="fill:#261a52"/><path d="M2474.25,1916.358c-69.385,341.031 -509.815,306.37 -556.146,-5.797c-42.775,-288.21 303.638,-466.436 495.572,-237.541c14.727,17.563 43.037,65.063 53.634,105.153c21.046,79.615 7.341,134.705 6.939,138.186Z" style="fill:#040605"/><path d="M3362.132,1890.726c-3.537,24.288 -7.275,84.512 -54.924,151.642c-168.017,236.71 -549.79,89.252 -501.383,-228.088c47.695,-312.676 497.963,-338.24 554.701,4.689c5.954,35.986 3.58,35.78 1.606,71.757Z" style="fill:#040505"/><path d="M2483.924,4584.498c13.644,4.455 217.691,-6.269 273.495,5.184c2.301,33.344 -15.018,101.542 138.041,143.756c67.21,18.537 312.964,52.753 368.184,-61.94c55.515,29.124 71.827,38.479 74.715,61.227c19.69,155.109 -1038.718,199.605 -1467.756,89.867c-342.355,-87.567 18.753,-186.664 100.186,-187.15c2.453,20.861 -0.788,21.322 8.24,40.055c44.7,92.753 252.505,76.747 268.36,75.187c269.674,-26.534 235.834,-152.123 236.535,-166.186Z" style="fill:#4b3288"/><path d="M2979.863,926.971c12.066,-1.116 11.616,-9.521 19.248,-7.832c47.82,10.583 277.291,78.501 456.795,252.965c452.897,440.179 358.247,1128.303 -173.31,1384.986c-88.752,42.857 -120.88,45.867 -154.531,63.436c-10.269,-14.066 -11.591,-12.426 -22.116,-26.567c-7.534,-10.122 35.232,-16.06 130.102,-83.242c73.324,-51.924 127.732,-118.948 147.354,-147.213c16.187,-23.317 14.636,-25.014 22.738,-28.705c417.586,-190.257 389.997,-767.028 26.293,-956.51c-31.051,-16.177 -38.453,-10.009 -59.999,-45.32c-137.746,-225.748 -410.246,-320.187 -410.264,-320.212c-5.276,-6.963 15.729,-79.058 17.69,-85.785Z" style="fill:#c7a7ec"/><path d="M2284.653,920.675c20.863,73.652 21.649,80.179 22.511,87.343c4.409,36.634 -41.66,-6.171 -242.758,153.302c-23.063,-20.959 -19.168,-54.626 -56.815,-47.434c-29.175,5.574 -117.628,67.001 -192.893,154.826c-22.644,26.423 -97.717,107.639 -10.708,119.988c1.615,0.229 3.228,-0.608 4.859,-0.579c1.269,0.023 5.041,0.089 6.381,14.524c-74.959,51.7 -128.633,102.667 -176.316,191.01c-14.699,27.232 -101.435,187.93 -52.993,383.178c67.558,272.297 292.312,353.173 298.901,363.023c15.733,23.516 103.111,154.125 262.094,237.467c21.401,11.219 1.659,15.165 -14.802,33.085c-84.2,-31.662 -129.183,-46.512 -238.283,-120.419c-10.357,-7.016 -78.222,-52.989 -120.389,-99.784c-51.197,-56.816 -51.858,-56.074 -56.083,-61.197c-253.204,-306.964 -207.793,-695.246 -44.53,-952.784c221.068,-348.719 542.043,-424.927 594.584,-447.002c9.443,-3.967 12.822,5.112 18.374,-3.648c0.898,-1.416 -2.034,-3.484 -1.136,-4.901Z" style="fill:#ae8aea"/><path d="M1359.155,4114.896c14.402,-10.044 168.272,-85.879 193.705,-65.008c25.418,20.859 121.737,148.625 138.529,152.41c49.642,11.19 62.158,-3.843 84.663,41.648c6.688,13.519 78.44,158.559 75.221,172.884c-1.254,5.58 -123.384,25.099 -144.11,23.407c-33.815,-81.438 -92.913,-149.147 -88.513,-121.091c9.508,60.634 28.136,121.615 31.306,131.994c-11.974,5.06 -161.074,34.802 -167.409,35.161c-0.396,-5.048 -36.201,-310.774 -37.144,-319.985c-2.11,-20.599 -18.152,-19.615 -69.007,-43.227c-15.99,-7.424 -15.854,-7.551 -17.239,-8.193Z" style="fill:#6d4ab3"/><path d="M2094.089,2776.705c8.814,-3 45.661,-19.83 51.424,-8.513c23.963,47.06 -9.125,188.801 -12.857,204.787c-3.128,-1.031 -4.321,-5.459 -7.448,-6.491c-1.576,-0.52 -262.855,163.394 -468.639,-46.029c-20.842,-21.211 -43.593,-58.347 -57.733,-62.944c-1.531,-0.498 -3.126,1.78 -4.657,1.283c174.012,-61.862 149.022,-147.957 178.471,-120.73c90.346,83.532 129.28,100.645 321.44,38.637Z" style="fill:#fcfcfc"/><path d="M3457.851,1465.785c306.125,240.921 207.09,611.753 23.007,754.276c-221.793,171.719 -442.832,70.784 -473.327,59.238c2.317,-2.108 3.201,-5.499 5.519,-7.608c3.55,-3.23 3.911,-1.545 25.525,-0.754c40.53,1.483 308.109,11.271 451.144,-231.273c177.192,-300.465 -47.34,-566.841 -47.273,-567.582c0.12,-1.326 1.142,-0.356 15.406,-6.298Z" style="fill:#e5e1eb"/><path d="M1832.895,1464.929c2.081,3.24 6.99,3.913 9.071,7.154c9.73,15.151 -193.593,192.417 -83.699,494.782c75.086,206.596 319.277,334.476 509.812,297.262c9.44,-1.844 7.881,2.12 15.75,9.967c-542.289,223.677 -893.787,-477.904 -450.934,-809.165Z" style="fill:#e7e3ec"/><path d="M3003.741,2749.605c-207.895,88.738 -601.281,78.334 -786.227,-12.994c-99.011,-48.892 -45.088,-132.178 3.716,-109.34c203.806,95.37 572.283,113.289 813.3,0.332c38.712,-18.143 52.462,25.604 52.946,38.576c2.026,54.263 -67.997,75.934 -83.736,83.426Z" style="fill:#ac35d6"/><path d="M3142.379,2791.202c215.327,169.172 329.625,521.829 319.984,533.344c-7.387,8.823 -11.716,-0.75 -137.544,42.098c-0.632,-1.83 -0.625,-1.478 -8.493,-22.662c-18.072,-48.657 -66.81,-208.466 -182.675,-349.408c-7.609,-9.256 -9.68,-4.837 -18.715,3.213c-3.911,-15.554 -32.32,-128.541 -21.851,-199.287c0.648,1.554 -1.319,3.452 -0.671,5.006c4.444,10.663 6.355,9.557 6.411,10.543c0.097,1.719 -0.976,3.389 -0.807,5.103c0.778,7.923 12.63,-2.222 13.467,-2.939c15.663,-13.408 20.576,-7.603 30.895,-25.011Z" style="fill:#fcfcfc"/><path d="M2979.863,926.971c13.696,-40.214 7.842,-47.645 22.953,-48.234c8.203,-0.32 350.451,86.708 558.272,351.903c94.46,120.538 250.205,350.699 205.599,725.957c-36.863,310.113 -259.36,557.777 -529.477,662.688c-94.343,36.642 -99.134,33.504 -101.366,26.248c-0.616,-2.002 -0.576,-1.852 -7.779,-25.006c33.651,-17.569 65.779,-20.578 154.531,-63.436c531.556,-256.683 626.206,-944.806 173.31,-1384.986c-179.504,-174.464 -408.975,-242.382 -456.795,-252.965c-7.632,-1.689 -7.182,6.715 -19.248,7.832Z" style="fill:#faf9fa"/><path d="M2390.828,4264.827c-11.872,-11.611 -11.182,-15.463 -10.897,-17.057c3.614,-20.179 3.326,-20.012 23.414,-255.176c11.526,-134.924 -68.237,-140.653 -64.145,-168.493c2.332,-15.868 217.012,116.904 551.347,0.075c33.316,-11.642 -12.594,25.713 -37.209,70.822c-47.008,86.145 20.077,320.017 6.931,372.008c-56.823,-11.717 -79.487,-20.933 -82.065,-39.535c-2.884,-20.809 -32.261,-232.797 -34.02,-260.383c-1.161,-18.206 64.229,-55.453 70.731,-70.892c9.993,-23.726 -32.992,10.217 -113.403,22.9c-157.986,24.919 -273.553,-34.121 -275.375,-33.863c-7.435,1.053 3.37,21.346 54.49,58.948c25.167,18.512 14.059,29.797 8.813,74.327c-1.824,15.487 -11.666,99.036 -24.134,193.427c-3.765,28.507 -3.375,37.822 -74.48,52.892Z" style="fill:#e6e2ec"/><path d="M2284.653,920.675c-0.898,1.416 2.034,3.484 1.136,4.901c-5.552,8.76 -8.931,-0.32 -18.374,3.648c-52.541,22.074 -373.517,98.282 -594.584,447.002c-163.264,257.538 -208.675,645.82 44.53,952.784c4.226,5.123 4.886,4.381 56.083,61.197c42.167,46.794 110.032,92.768 120.389,99.784c109.1,73.907 154.082,88.757 238.283,120.419c-13.235,30.287 -13.454,30.472 -15.648,32.327c-8.994,7.602 -217.778,-78.697 -352.049,-207.636c-7.129,-6.846 2.309,-81.15 -57.634,-82.912c-15.776,-0.464 -18.52,2.043 -33.851,-19.115c-387.198,-534.354 -45.164,-1182.933 447.848,-1390.037c121.671,-51.111 151.081,-60.37 156.14,-46.962c3.035,8.043 4.696,16.559 7.731,24.602Z" style="fill:#f9f8fa"/><path d="M2678.283,3231.859c-43.102,-139.981 -41.172,-143.561 -53.231,-146.833c-19.757,-5.361 -28.663,45.96 -30.074,50.586c-37.762,123.868 -40.486,126.06 -51.406,127.002c-121.463,10.479 -121.816,42.159 -130.913,30.009c-4.48,-5.983 76.875,-215.499 84.077,-234.045c33.924,-87.364 31.818,-116.027 77.5,-116.528c120.127,-1.318 120.395,3.704 127.544,9.785c12.775,10.867 96.241,255.472 123.953,326.067c12.145,30.938 -17.748,8.002 -17.788,7.984c-38.861,-17.892 -102.197,-22.131 -111.262,-22.738c-11.276,-0.755 -16.65,-26.416 -18.399,-31.29Z" style="fill:#060707"/><path d="M1359.155,4114.896c1.385,0.642 1.25,0.769 17.239,8.193c50.856,23.612 66.898,22.628 69.007,43.227c0.943,9.212 36.748,314.937 37.144,319.985c-126.2,33.088 -190.828,45.605 -296.486,82.194c-0.873,0.302 -11.996,4.154 -10.754,-4.226c0.466,-3.142 37.213,-153.642 43.36,-162.504c20.036,-28.887 55.997,-17.734 72.165,-71.526c48.529,-161.458 51.5,-197.675 68.325,-215.343Z" style="fill:#493085"/><path d="M3131.969,4383.874c25.475,5.64 115.822,8.614 207.324,19.167c54.505,6.286 63.345,17.786 82.703,-6.614c50.005,-63.026 58.858,-72.111 167.176,-44.815c78.548,19.795 50.22,98.689 86.919,106.576c51.567,11.081 51.273,10.791 102.698,22.997c36.913,8.762 291.059,69.088 447.89,155.875c114.408,63.311 170.971,99.744 144.523,152.504c-9.948,-6.771 -10.808,-5.116 -19.374,-13.185c-16.433,-15.481 -91.175,-85.889 -242.005,-145.171c-217.323,-85.415 -491.488,-167.007 -981.973,-203.076c-2.369,-22.514 -3.834,-22.727 4.119,-44.259Z" style="fill:#261a51"/><path d="M2745.325,4374.637c-15.744,6.825 -16.011,3.204 -33.351,2.725c-66.795,-1.845 -200.185,1.897 -212.929,0.927c-4.236,-3.483 -4.104,-3.064 -4.236,-3.483c-9.093,-28.946 55.823,-25.47 23.512,-142.3c-3.426,-12.389 19.946,-164.042 22.135,-178.243c10.331,-67.032 6.449,-77.623 28.649,-76.402c56.253,3.094 55.994,0.905 112.24,-0.091c7.583,-0.134 8.873,8.988 9.024,10.058c26.926,190.487 36.351,230.051 29.005,255.623c-21.768,75.768 25.705,109.401 25.952,131.186Z" style="fill:#fbfbfb"/><path d="M2911.667,1067.047c156.454,50.907 236.183,107.499 340.299,217.174c0.907,0.955 49.045,61.325 -0.328,16.455c-66.78,-60.69 -227.438,-141.829 -335.804,-169.324c-406.912,-103.244 -683.214,47.552 -758.985,87.544c-68.585,36.199 -116.095,79.345 -125.14,87.56c-33.279,30.223 4.433,-41.215 110.413,-123.055c162.837,-125.748 451.119,-209.947 769.546,-116.353Z" style="fill:#4d4c50"/><path d="M1594.178,2858.798c1.531,0.498 3.126,-1.78 4.657,-1.283c14.141,4.597 36.891,41.733 57.733,62.944c205.784,209.424 467.063,45.51 468.639,46.029c3.128,1.031 4.321,5.459 7.448,6.491c-24.795,99.688 -22.733,107.021 -54.445,119.17c-233.662,89.52 -407.703,-39.948 -435.958,-60.968c-54.288,-40.385 -140.689,-156.129 -118.672,-159.012c35.695,-4.674 35.401,-4.024 70.598,-13.372Z" style="fill:#e5e1eb"/><path d="M2912.397,901.039c-12.283,40.34 -10.347,40.469 -22.055,81.116c-7.255,25.186 -74.008,-30.04 -321.264,-16.143c-132.206,7.431 -186.524,41.305 -192.213,20.841c-9.854,-35.442 -7.742,-35.524 -18.349,-70.493c5.41,-8.388 1.405,-12.587 11.453,-14.355c94.772,-16.684 94.284,-18.396 102.567,-19.469c239.314,-31.001 420.932,10.714 422.908,10.886c14.864,1.296 13.6,6.11 16.954,7.616Z" style="fill:#ede9f2"/><path d="M2493.227,4421.88c173.457,-3.793 220.692,-1.957 254.757,-0.702c6.091,25.967 9.118,155.006 9.435,168.504c-55.804,-11.453 -259.85,-0.729 -273.495,-5.184c2.873,-145.068 4.82,-150.383 9.303,-162.618Z" style="fill:#6a48b2"/><path d="M1725.099,2558.673c3.521,-31.14 3.705,-30.778 12.265,-61.012c2.481,-8.762 15.236,3.208 16.212,4.123c32.974,30.944 179.04,142.188 346.966,198.188c1.254,0.418 26.009,8.673 10.097,13.088c-35.76,9.921 -185.279,74.381 -254.361,27.189c-88.045,-60.146 -61.843,-98.949 -120.466,-138.124c-20.831,-13.921 -14.066,-18.687 -10.712,-43.453Z" style="fill:#fbfbfb"/><path d="M2064.406,1161.32c-10.943,10.751 -11.694,10.15 -16.329,24.853c-14.004,44.418 -29.011,33.463 -45.872,39.725c-14.071,5.226 -72.441,81.805 -89.399,109.574c-22.903,37.504 -31.607,28.01 -97.574,67.173c-1.341,-14.434 -5.112,-14.501 -6.381,-14.524c-1.631,-0.029 -3.244,0.808 -4.859,0.579c-87.009,-12.349 -11.936,-93.565 10.708,-119.988c75.264,-87.825 163.717,-149.252 192.893,-154.826c37.647,-7.193 33.751,26.475 56.815,47.434Z" style="fill:#fcfcfc"/><path d="M2156.189,3614.46c-4.719,-2.99 -38.95,-12.162 -45.964,-65.685c-0.803,-6.128 -6.229,-39.32 9.779,-30.391c153.202,85.45 333.104,86.931 382.454,93.519c15.237,2.034 7.449,8.616 5.272,23.638c-3.523,24.315 6.222,47.642 1.727,52.403c-2.716,2.877 -193.318,1.313 -353.269,-73.485Z" style="fill:#b473d1"/><path d="M2931.823,3586.498c4.465,-0.957 109.917,-20.388 188.853,-67.474c25.964,-15.487 6.214,51.15 4.95,55.417c-24.804,83.693 -379.173,123.473 -391.326,114.756c-4.168,-2.99 -1.808,-3.779 1.233,-23.24c4.529,-28.985 -12.032,-52.602 7.238,-53.872c95.341,-6.284 95.166,-6.666 189.052,-25.588Z" style="fill:#cb43c6"/><path d="M3114.936,2997.789c9.035,-8.05 11.106,-12.469 18.715,-3.213c115.866,140.942 164.604,300.75 182.675,349.408c7.868,21.184 7.86,20.832 8.493,22.662c-77.136,29.704 -79.71,30.759 -83.18,24.746c-5.954,-10.317 -2.073,-11.834 -57.444,-137.374c-32.234,-73.084 -21.515,-76.052 -40.514,-153.758c-4.585,-18.751 -17.075,-59.463 -28.745,-102.47Z" style="fill:#e5e1eb"/><path d="M3907.166,2566.374c87.67,-49.143 57.852,-123.427 76.207,-144.498c23.803,-27.325 6.948,61.848 52.447,119.579c28.622,36.317 135.206,44.818 78.79,61.224c-100.46,29.215 -93.226,47.718 -116.18,129.904c-4.784,17.13 -15.306,13.755 -18.67,-0.769c-25.26,-109.071 -44.848,-101.975 -124.755,-132.139c-26.011,-9.819 10.514,-16.042 52.162,-33.301Z" style="fill:#6c47b5"/><path d="M2319.009,2810.91c262.91,65.285 475.531,32.499 607.384,2.07c0.092,2.58 0.555,2.127 4.221,31.99c-3.817,2.416 -5.607,7.321 -9.424,9.737c-17.747,11.233 -159.607,28.162 -173.599,29.831c-192.596,22.983 -399.794,-19.048 -435.596,-35.644c4.402,-29.794 4.332,-29.61 4.755,-32.177c0.543,-3.299 1.716,-2.511 2.259,-5.807Z" style="fill:#e6e2eb"/><path d="M2205.069,2809.026c18.639,20.126 29.008,19.338 106.194,42.082c-5.612,70.052 -48.622,158.455 -54.921,171.403c-16.864,34.662 -65.978,93.187 -72.359,100.79c-34.269,28.573 -35.994,25.665 -38.825,27.301c5.65,-73.506 63.994,-197.014 59.911,-341.575Z" style="fill:#a39db9"/><path d="M2155.069,4269.602c23.781,12.535 155.342,69.372 306.069,7.066c21.309,-8.809 20.278,4.873 15.551,27.208c-2.821,13.325 -1.521,60.335 -127.003,71.26c-62.411,5.434 -197.495,-4.384 -215.104,-65.787c-0.897,-3.128 -6.571,-22.913 -2.501,-40.598c3.508,-15.244 9.567,-6.828 22.988,0.852Z" style="fill:#8f69c8"/><path d="M3110.947,4278.451c-2.158,26.627 7.594,72.682 -123.135,93.427c-23.783,3.774 -216.658,23.17 -224.418,-73.009c-1.601,-19.837 -2.053,-31.06 16.129,-22.682c118.769,54.731 261.537,17.989 303.85,-4.723c7.627,-4.094 24.161,-23.416 27.574,6.986Z" style="fill:#8f69c9"/><path d="M1159.807,3517.415c40.042,-65.699 18.679,-113.897 42.027,-106.766c3.88,1.185 10.773,37.621 11.405,40.963c23.76,125.603 97.812,91.84 114.857,113.473c20.665,26.228 -58.901,-2.624 -103.74,76.853c-10.596,18.781 -19.447,125.237 -39.748,34.791c-23.29,-103.763 -110.759,-88.849 -116.246,-101.987c-9.997,-23.938 40.941,-2.61 91.444,-57.327Z" style="fill:#d442a8"/><path d="M2912.397,901.039c-3.354,-1.507 -2.09,-6.32 -16.954,-7.616c-1.976,-0.172 -183.594,-41.887 -422.908,-10.886c-8.283,1.073 -7.795,2.784 -102.567,19.469c-10.048,1.769 -6.043,5.967 -11.453,14.355c-0.804,-2.658 -20.993,-48.354 -4.113,-52.695c242.566,-62.386 561.72,-17.277 569.416,-2.924c1.146,2.138 -10.373,37.114 -11.421,40.297Z" style="fill:#f9f9f9"/><path d="M2565.215,3585.901c93.403,-62.714 155.359,29.877 138.252,85.88c-41.078,134.476 -245.954,27.915 -138.252,-85.88Z" style="fill:#a988d1"/><path d="M3039.836,2814.038c-0.342,57.887 -0.717,81.28 25.307,193.646c-0.801,1.418 2.006,3.318 1.205,4.736c-1.079,1.911 -11.958,-1.536 -13.362,51.908c-0.574,21.848 4.658,23.733 -9.5,40.712c-81.311,-93.644 -99.138,-187.014 -111.841,-255.411c48.298,-6.161 95.422,-25.603 108.191,-35.592Z" style="fill:#a9a4be"/><path d="M3711.733,4722.987c80.576,-59.564 300.078,-22.336 336.993,34.791c-93.437,50.991 -292.713,13.652 -336.993,-34.791Z" style="fill:#452e7f"/><path d="M3298.265,4902.357c2.884,-2.739 4.392,-6.717 7.276,-9.456c40.966,-38.911 262.77,-60.854 330.76,10.34c-67.557,52.918 -287.158,43.881 -338.036,-0.884Z" style="fill:#462f82"/><path d="M3065.971,3128.694c14.654,12.059 14.2,12.424 31.131,20.686c9.976,20.817 36.345,179.904 26.109,307.457c-2.486,30.977 -9.256,32.073 -74.461,61.322c-1.533,-0.339 -2.853,2.059 -4.386,1.72c-1.131,-0.25 -12.166,-2.69 -12.8,-6.781c-0.145,-0.936 5.362,-9.661 14.697,-41.336c28.77,-97.626 24.501,-269.132 15.231,-331.622c-0.955,-6.438 2.12,-5.415 4.481,-11.446Z" style="fill:#e5e1eb"/><path d="M1727.433,2655.686c17.599,24.769 38.404,50.476 -52.653,126.098c-56.231,46.699 -168.805,79.129 -195.4,45.765c-19.068,-23.922 -21.024,-49.634 -7.376,-50.123c57.616,-2.064 58.814,2.147 111.708,-20.898c95.202,-41.477 123.822,-109.507 128.38,-110.331c8.192,-1.482 14.539,8.633 15.341,9.489Z" style="fill:#9e7fcd"/><path d="M2523.166,2431.422c-95.666,-67.395 -83.042,-155.034 -74.856,-161.142c21.45,-16.003 23.967,34.882 28.23,49.077c43.256,144.03 289.033,168.878 324.251,-35.713c3.662,-21.271 25.048,-18.589 27.092,-0.075c11.029,99.917 -140.343,246.041 -304.717,147.853Z" style="fill:#454449"/><path d="M2520.36,3344.684c1.031,-29.896 -0.304,-30.103 2.518,-35.926c7.739,-15.967 9.155,18.074 82.061,24.889c81.275,7.597 115.202,-32.114 116.226,-14.208c3.416,59.738 -20.04,74.554 -56.463,99.754c-44.049,30.475 -9.462,79.106 -33.515,61.713c-43.944,-31.777 -24.984,-79.436 -38.303,-93.634c-20.879,-22.254 -46.117,17.158 -48.436,16.623c-18.74,-4.317 -23.592,-54.123 -24.088,-59.213Z" style="fill:#d839b5"/><path d="M3494.941,3395.583c-0.554,32.895 -13.886,27.269 -93.566,52.829c-34.588,11.095 -122.509,38.358 -127.705,36.963c-14.138,-3.795 -39.254,-46.683 -19.641,-56.566c24.826,-12.511 217.507,-85.799 232.046,-67.593c4.433,5.551 8.434,31.562 8.866,34.368Z" style="fill:#9c7dcb"/><path d="M3042.876,1682.216c88.546,91.737 -87.775,179.052 -110.384,60.098c-9.072,-47.729 47.874,-104.787 110.384,-60.098Z" style="fill:#fbfbfb"/><path d="M2177.39,1732.293c-9.949,125.881 -184.931,54.668 -121.235,-39.002c23.465,-34.508 110.366,-49.416 121.235,39.002Z" style="fill:#fbfafa"/><path d="M1436.817,4810.301c-44.988,46.045 -223.279,42.763 -261.039,5.614c39.855,-52.874 229.988,-53.763 261.039,-5.614Z" style="fill:#462f81"/><path d="M3298.265,4902.357c-1.537,-1.317 -14.427,-12.367 -13.084,-21.654c12.925,-89.415 444.736,-65.695 351.12,22.539c-67.99,-71.194 -289.794,-49.252 -330.76,-10.34c-2.884,2.739 -4.392,6.717 -7.276,9.456Z" style="fill:#281c56"/><path d="M3711.733,4722.987c-60.775,-74.381 235.706,-90.182 336.823,-10.392c28.952,22.846 3.026,42.967 0.171,45.183c-36.915,-57.127 -256.417,-94.355 -336.993,-34.791Z" style="fill:#281b55"/><path d="M2745.325,4374.637c0.364,3.712 3.607,36.795 2.659,46.541c-34.065,-1.256 -81.3,-3.092 -254.757,0.702c-3.548,-24 -1.014,-33.447 -0.263,-36.248c0.823,-3.069 5.257,-4.274 6.081,-7.343c12.744,0.969 146.133,-2.773 212.929,-0.927c17.341,0.479 17.608,4.101 33.351,-2.725Z" style="fill:#261a51"/><path d="M1436.817,4810.301c-31.051,-48.15 -221.185,-47.26 -261.039,5.614c-81.137,-62.791 219.971,-106.175 269.614,-36.646c10.547,14.772 -6.613,29.364 -8.575,31.033Z" style="fill:#281c56"/><path d="M2238.077,3679.061c11.624,74.035 129.364,159.004 40.908,118.259c-65.213,-30.038 -76.442,-40.515 -81.927,-45.633c24.46,-2.344 -7.259,-11.394 -41.514,-90.535c-9.637,-22.264 11.116,-5.051 82.534,17.908Z" style="fill:#e7e4ec"/><path d="M2620.095,3703.904c-67.304,-8.81 -59.307,-79.324 -24.852,-97.796c73.166,-39.227 117.477,91.308 24.852,97.796Z" style="fill:#fcfbfc"/><path d="M3431.635,4665.89c-2.472,-1.239 -30.764,-15.419 -18.882,-28.958c38.152,-43.475 202.648,-3.388 159.775,27.09c-42,29.858 -130.047,4.938 -140.893,1.868Z" style="fill:#493186"/><path d="M1569.118,4674.935c-3.211,-0.641 -32.21,-6.431 -39.468,-10.821c-51.882,-31.376 113.946,-68.975 149.246,-26.383c5.917,7.14 15.371,45.408 -109.778,37.203Z" style="fill:#483085"/><path d="M2992.588,4518.198c111.768,-40.173 181.449,37.972 191.803,62.125c9.762,22.771 -4.255,36.952 -21.236,17.611c-78.347,-89.236 -178.589,-55.12 -191.136,-58.847c-12.058,-3.582 18.496,-19.79 20.568,-20.889Z" style="fill:#414044"/><path d="M2154.975,4546.744c-78.394,31.769 -64.597,56.221 -91.182,61.294c-35.863,6.844 14.21,-113.646 153.205,-98.828c35.63,3.799 84.109,33.64 35.916,27.901c-51.45,-6.127 -90.483,7.105 -97.939,9.633Z" style="fill:#414045"/><path d="M1707.162,4440.238c-2.44,0.593 -28.503,11.15 -57.207,10.903c-3.17,-10.379 -21.798,-71.36 -31.306,-131.994c-4.399,-28.056 54.698,39.653 88.513,121.091Z" style="fill:#462e81"/><path d="M3502.406,4374.179c7.035,0.945 50.249,6.748 86.925,17.818c13.875,4.188 28.498,49.204 28.395,49.798c-2.254,13.019 -86.589,-9.282 -93.904,-11.216c0.438,-1.117 -1.941,-2.153 -1.503,-3.27c0.549,-1.398 11.531,-6.935 0.173,-20.366c-14.28,-16.887 -16.813,-15.528 -20.087,-32.763Z" style="fill:#704eb7"/><path d="M1451.489,2533.145c-10.062,7.708 -84.588,71.393 -54.183,16.618c38.878,-70.039 179.182,-108.246 150.493,-73.087c-11.896,14.579 -23.063,7.08 -96.31,56.469Z" style="fill:#403e42"/><path d="M2926.394,2812.979c8.305,-2.276 62.958,-17.251 101.734,-35.17c21.959,-10.148 15.22,7.522 11.709,36.229c-12.769,9.989 -59.893,29.431 -108.191,35.592l-1.031,-4.661c-3.666,-29.863 -4.129,-29.41 -4.221,-31.99Z" style="fill:#8b88a7"/><path d="M2205.069,2809.026c-0.652,-8.216 -6.937,-40.41 6.665,-35.15c31.631,12.232 29.798,16.533 107.276,37.033c-0.543,3.296 -1.715,2.508 -2.259,5.807c-0.423,2.568 -0.352,2.383 -4.755,32.177l-0.734,2.214c-77.185,-22.744 -87.554,-21.956 -106.194,-42.082Z" style="fill:#8e89a8"/><path d="M2293.72,2684.786c88.801,17.296 88.783,29.687 88.772,37.393c-0.056,38.674 -109.588,-4.397 -109.692,-20.379c-0.097,-14.954 18.773,-16.803 20.92,-17.014Z" style="fill:#fcf5fc"/><path d="M3065.144,3007.685c28.901,103.663 31.04,129.684 31.958,141.696c-16.931,-8.262 -16.477,-8.627 -31.131,-20.686c-1.792,-1.899 -17.461,-18.503 -22.485,-23.653c14.158,-16.98 8.926,-18.864 9.5,-40.712c1.404,-53.444 12.283,-49.998 13.362,-51.908c0.801,-1.418 -2.006,-3.318 -1.205,-4.736Z" style="fill:#9590ae"/><path d="M4002.694,4023.175c-59.057,51.421 -81.274,-53.364 -25.219,-51.894c46.069,1.209 26.975,47.625 25.219,51.894Z" style="fill:#6d46b9"/><path d="M3797.424,3130.893c-4.791,-48.33 38.154,-42.047 41.882,-40.427c55.791,24.25 -14.236,100.759 -41.882,40.427Z" style="fill:#6c3aec"/><path d="M4183.035,2022.429c-3.706,-12.568 -5.504,-12.675 -0.275,-24.249c27.292,-60.412 94.798,21.558 39.923,41.176c-23.106,8.261 -22.902,0.47 -39.648,-16.927Z" style="fill:#d12abc"/><path d="M935.446,2540.1c-2.024,-1.55 -17.285,-13.232 -16.546,-27.237c0.486,-9.21 7.552,-22.037 16.722,-26.655c53.216,-26.801 62.457,76.946 -0.176,53.892Z" style="fill:#d23eac"/><path d="M1047.971,1656.598c-10.499,-9.739 -15.63,-13.823 -0.201,-27.332c12.576,-11.012 14.559,-25.283 26.055,-22.886c35.812,7.466 29.105,84.623 -25.854,50.218Z" style="fill:#6b36ee"/><path d="M3502.406,4374.179c3.273,17.236 5.807,15.877 20.087,32.763c11.358,13.432 0.376,18.968 -0.173,20.366c-0.438,1.117 1.941,2.153 1.503,3.27c-15.654,-0.99 -72.036,-4.498 -61.697,-19.403c21.087,-30.399 36.142,-35.574 40.28,-36.996Z" style="fill:#4b338b"/><path d="M3142.379,2791.202c-10.319,17.408 -15.232,11.603 -30.895,25.011c-0.838,0.717 -12.689,10.862 -13.467,2.939c-0.168,-1.714 0.905,-3.383 0.807,-5.103c-0.056,-0.986 -1.967,0.12 -6.411,-10.543c-0.648,-1.554 1.319,-3.452 0.671,-5.006c4.175,-23.912 5.277,-36.629 26.269,-24.003c9.867,5.935 21.265,15.263 23.026,16.704Z" style="fill:#e2dde9"/><path d="M3451.843,3712.094c1.357,-10.484 2.047,-21.048 3.404,-31.532c7.161,-55.328 22.648,54.083 -7.081,94.572c-18.525,25.23 -10.457,-5.571 -10.101,-6.462c10.972,-27.5 8.479,-27.82 13.778,-56.578Z" style="fill:#1c1c1d"/><path d="M2416.065,2717.006c2.482,0.889 43.759,15.677 20.509,25.804c-7.204,3.138 -31.011,5.631 -36.336,-4.989c-8.183,-16.32 -2.685,-20.483 15.827,-20.815Z" style="fill:#fceffd"/><path d="M1786.38,4887.592c-0.043,2.003 -0.317,14.586 -23.545,8.525c-9.614,-2.509 -3.78,-22.348 23.545,-8.525Z" style="fill:#513790"/><path d="M1803.755,4884.899c-7.639,-4.764 -10.378,-3.396 -9.019,-8.815c1.567,-6.25 31.824,-1.592 9.019,8.815Z" style="fill:#5b3c9b"/><path d="M2138.231,2819.153c5.672,6.242 15.894,8.129 7.387,8.129c-1.635,0 -2.76,-1.817 -3.859,-3.026c-1.391,-1.53 -2.137,-3.572 -3.528,-5.103Z" style="fill:#f1eef5"/></g></svg>