<svg xmlns="http://www.w3.org/2000/svg" xml:space="preserve" style="fill-rule:evenodd;clip-rule:evenodd;stroke-linejoin:round;stroke-miterlimit:2" viewBox="0 0 1000 1000"><path d="M1000 250v500c0 137.979-112.021 250-250 250H250C112.021 1000 0 887.979 0 750V250C0 112.021 112.021 0 250 0h500c137.979 0 250 112.021 250 250" style="fill:#fcfcfc"/><path d="M705.96 106.366c1.889-40.712 34.78-56.373 57.007-56.713 60.701-.929 77.483 77.041 31.131 105.565-35.183 21.65-64.951-1.536-66.239-1.534-1.17.002-25.457 18.826-42.405 42.585-10.02 14.047-9.972 14.003-18.528 28.895-2.086 3.631 1.475 2.567 22.023 12.563 170.609 82.994 200.52 243.625 203.859 261.361 19.472 103.418-7.942 176.466-15.254 197.033-14.196 39.93-39.676 75.983-44.753 82.108-22.684 27.368-49.839 63.715-121.347 98.62-8.44 4.12 16.014 44.905-118.12 66.279-42.036 6.698-65.049 6.427-75.175 6.91-73.651 3.516-191.062-13.159-217.068-46.041-10.538-13.324-9.613-23.444-9.76-24.689-.559-4.743-28.438-9.247-80.556-54.445C95.712 725.078 85.602 572.49 113.169 473.107c3.752-13.526 24.939-89.91 86.533-153.163 66.303-68.088 129.615-88.368 134.914-91.898 2.111-1.406-14.469-25.771-15.916-27.897-14.085-20.698-37.212-40.253-37.744-40.66-6.054-4.628-6.25-7.211-10.57-4.279-17.744 12.041-44.032 10.849-57.563 3.229-50.889-28.659-34.7-84.477-2.611-101.633 37.455-20.026 75.1 4.546 82.809 32.245 7.883 28.327-4.239 33.259 3.007 38.142 1.38.93 9.369 6.314 16.423 12.733 3.701 3.367 34.344 27.884 56.933 70.902 2.88 5.485 4.489 3.327 10.428 1.492 58.595-18.104 122.588-20.122 165.673-15.665 48.609 5.029 82.537 17.267 83.859 17.14 1.11-.106.951-.475 7.409-11.63 2.46-4.249 15.513-26.795 37.477-48.737 24.01-23.986 34.368-26.502 33.777-29.736-1.581-8.653-1.84-8.534-2.048-17.329Z" style="fill:#040309"/><path d="M469.801 599.975c-19.161 148.983-194.376 193.078-273.868 85.727-76.538-103.362-11.461-251.941 115.5-258.548 79.008-4.112 167.705 64.289 158.368 172.822Z" style="fill:#fdfdfd"/><path d="M531.502 563.41c1.173-7.403 8.172-51.586 39.699-85.11 96.787-102.917 257.692-41.837 265.427 103.406 1.829 34.343-12.623 82.779-40.459 113.332C692.53 808.79 514.295 714.553 531.503 563.41Z" style="fill:#faf8fb"/><path d="M633.202 685.746c-6.611-1.398-47.061-9.949-67.422-50.189-36.278-71.698 24.816-150.276 97.748-138.589 76.283 12.224 102.018 102.833 59.063 154.515-36.432 43.833-81.626 35.183-89.389 34.263M367.931 497.595c7.727 1.898 51.615 9.593 70.969 61.154 28.157 75.013-49.87 160.415-133.138 116.728-68.338-35.854-68.815-149.181 22.28-176.259 16.348-4.859 36.726-2.057 39.889-1.622Z" style="fill:#040308"/><path d="M324.032 896.743c-30.51-25.386-.226-49.769 13.723-48.921 3.424.208 81.45 45.264 207.687 32.1 67.627-7.052 107.927-28.514 115.342-31.768 6.525-2.864 26.733 6.994 28.184 22.561 1.771 18.991-14.798 28.572-27.637 34.11-98.891 42.653-285.33 29.11-337.298-8.082Z" style="fill:#9f3dc7"/><path d="M647.179 267.757c1.732 1.115 101.561 38.746 162.998 136.038C911.286 563.912 845.44 714.27 776.63 785.272c-44.477 45.895-68.814 51.901-79.155 60.592-6-5.909-5.936-5.936-13.23-10.162-3.566-2.066 1.072-2.1 20.523-17.405 5.424-4.268 38.921-30.896 61.932-72.497 1.727-3.123 45.032-24.234 70.657-78.525 34.001-72.037 25.035-179.354-70.743-239.769-6.108-3.853-15.424-30.784-56.748-69.087-35.201-32.628-73.097-49.688-73.653-50.418-.111-.146-.292-9.102 10.967-40.245Zm-293.524-.154c1.094 3.101 12.13 34.382 11.438 39.461-.314 2.303-1.293 1.563-6.646 4.231-43.659 21.761-92.134 62.35-119.756 110.269-5.224 9.063-7.332 6.919-16.686 13.625-112.333 80.532-96.64 244.042 5.802 306.449 7.107 4.33 6.688 4.814 11.05 12.177 29.948 50.544 78.886 80.279 78.935 80.551.231 1.276-.501.912-4.241 3.016-6.013 3.382-5.609 3.841-10.45 8.658-6.43-4.986-19.329-10.087-42.198-27.406-90.681-68.674-121.81-169.075-123.204-233.103-.23-10.548-9.525-147.544 119.738-257.756 48.743-41.559 94.002-58.244 94.953-58.752.562-.3.703-1.12 1.265-1.42" style="fill:#c6bbe7"/><path d="M353.655 267.603c-.562.3-.703 1.12-1.265 1.42-.951.508-46.21 17.193-94.953 58.752-129.263 110.212-119.968 247.208-119.738 257.756 1.395 64.028 32.524 164.429 123.204 233.103 22.869 17.319 35.768 22.42 42.198 27.406-5.369 6.833-4.693 7.195-7.486 12.047-.914 1.589-5.776-1.19-16.092-7.029-117.59-66.567-150.564-174.533-157.786-231.015-19.503-152.549 56.953-245.745 75.049-268.463 50.329-63.181 129.979-101.645 145.947-106.578 2.099-.648 3.876 3.406 10.921 22.601Zm293.524.154c.974-2.515 8.214-22.973 10.462-23.12 4.123-.269 57.149 24.989 87.718 50.005 51.865 42.443 69.623 67.67 96.864 115.99 9.47 16.797 30.148 66.062 35.966 113.425 21.916 178.396-80.76 289.78-167.991 333.018-5.233 2.594-5.402.407-6.889-2.588-2.347-4.728-2.691-4.441-5.834-8.623 10.341-8.69 34.678-14.697 79.155-60.592 68.81-71.002 134.655-221.36 33.547-381.477-61.437-97.292-161.266-134.923-162.998-136.038" style="fill:#fdfcfd"/><path d="M436.167 307.612c173.871-36.393 263.771 76.775 272.668 86.528 15.808 17.329-5.894-3.843-34.764-20.57-191.055-110.694-360.06 4.195-382.016 22.985-13.333 11.41 3.011-7.347 4.54-9.018 20.668-22.601 62.632-62.582 139.573-79.925Z" style="fill:#72678e"/><path d="M389.977 255.442c1.212-.637 81.335-29.826 179.832-11.397 12.347 2.31 12.26 2.378 24.454 5.352 16.847 4.109 16.519 5.08 17.073 5.594-11.368 27.96-10.71 38.908-14.234 38.035-17.842-4.424-49.87-17.91-115.963-14.466-35.368 1.843-68.269 11.726-74.029 13.456-3.501 1.052-4.823 3.079-5.758-.38-3.54-13.094-3.121-13.153-11.374-36.194Z" style="fill:#c6bbe7"/><path d="M389.977 255.442c-9.481-22.605-10.345-23.631-8.388-24.35 13.857-5.09 115.63-34.562 226.2-4.287 13.321 3.647 13.832 4.258 13.42 5.284-3.353 8.347-3.96 8.053-9.874 22.903-.553-.514-.225-1.485-17.073-5.594-12.194-2.974-12.107-3.042-24.454-5.352-98.497-18.429-178.62 10.759-179.832 11.397Z" style="fill:#fcfcfc"/><path d="M458.877 752.481c23.956 32.075 76.847 25.256 90.253-16.277.266-.825 2.721-8.429 5.098-9.584 10.049-4.881 14.527 11.4-2.328 34.329-29.478 40.098-97.01 31.648-113.615-17.959-.451-1.346-5.908-17.652 4.794-17.079 8.863.474 2.185 7.243 15.798 26.57" style="fill:#6b6088"/><path d="M300.069 539.554c15.074-30.984 53.389-12.832 48.031 12.303-6.948 32.591-58.546 24.429-48.031-12.303m309.687-13.947c34.417-6.966 40.894 40.19 11.83 47.545-30.34 7.677-45.76-37.447-11.83-47.545" style="fill:#fcfcfc"/><path d="M387.446 881.477c18.421 5.507 41.642 10.085 33.901 20.748-8.535 11.756-66.4-5.021-74.437-15.484-5.447-7.091-2.448-19.184 17.068-12.795 8.94 2.927 8.868 3.003 23.467 7.531Z" style="fill:#fdfbfd"/><path d="M696.603 146.681c-11.253 11.328-13.146 12.611-21.868 22.715-25.1 29.076-29.335 40.201-29.842 40.605-3.11 2.478-2.13-5.002 17.958-32.318 14.09-19.16 32.027-32.133 32.812-31.846.397.145.542.698.94.844" style="fill:#2a213e"/></svg>