<svg xmlns="http://www.w3.org/2000/svg" width="1200" height="630" viewBox="0 0 1200 630"><linearGradient id="linearGradient1" x1="0" x2="1200" y1="0" y2="630" gradientUnits="userSpaceOnUse"><stop offset="0" stop-color="#3b82f6" stop-opacity="1"/><stop offset="1" stop-color="#1e40af" stop-opacity="1"/></linearGradient><path id="Path" fill="url(#linearGradient1)" stroke="none" d="M 0 0 L 1200 0 L 1200 630 L 0 630 Z"/><text id="Chirping-Astro" x="133" y="306" fill="#fff" font-family="Helvetica" font-size="84" xml:space="preserve">Chirping Astro</text><text id="A-Chirpy-inspired-Astro-v6" x="133" y="386" fill="#fff" fill-opacity=".976" font-family="Helvetica" font-size="36" xml:space="preserve">A Chirpy-inspired Astro v6 theme</text><g id="avatar"><path id="path1" fill="#030405" fill-rule="evenodd" stroke="none" d="M 929.954529 495.975647 C 929.928345 493.666138 924.89563 490.100616 927.203308 482.068207 C 927.982178 479.357208 926.98291 475.163025 924.128418 454.968781 C 924.112366 454.855377 923.975647 453.888214 923.171753 453.902527 C 917.208923 454.008118 917.236389 454.240173 911.272827 453.91217 C 908.91925 453.782715 909.330872 454.905518 908.235657 462.01178 C 908.003601 463.517273 905.525879 479.594482 905.889038 480.907837 C 909.314453 493.293396 902.432495 492.924866 903.396484 495.99353 C 903.410339 496.037964 903.396484 495.99353 903.84552 496.362793 C 903.758301 496.68811 903.288269 496.815857 903.200867 497.141235 C 903.121277 497.438171 902.852539 498.439667 903.22876 500.983978 C 902.753601 502.281189 902.547241 502.844543 902.242554 518.223633 C 902.168335 519.714478 905.755798 533.028564 877.166687 535.841553 C 875.485779 536.006897 853.45575 537.703735 848.717041 527.870728 C 847.759949 525.884766 848.103516 525.835938 847.843506 523.62439 C 849.436523 508.12326 863.252502 507.067169 863.460693 504.692017 C 863.581238 503.317352 863.500671 503.34491 863.095398 502.035217 C 863.093811 500.296509 863.637939 500.21814 862.528748 497.617737 C 862.80365 496.903015 863.033813 496.944763 862.87793 494.996582 C 862.798462 494.003357 857.602966 488.236115 860.459473 480.926849 C 862.754639 475.053833 857.456665 467.486084 862.952576 425.178375 C 863.101868 424.029419 862.153381 422.544067 861.53363 420.860046 C 856.656128 407.605957 857.014893 407.470276 857.215576 405.184845 C 857.574219 401.100281 857.974304 401.159637 857.65564 397.07312 C 856.486877 382.0849 860.274353 366.962677 859.690491 366.421783 C 859.220276 365.986298 859.130371 366.298492 856.054016 367.151581 C 829.833862 374.422913 804.698059 361.619507 794.028992 338.58667 C 791.98999 334.184692 788.511536 333.237366 788.895325 325.656769 C 789.12146 321.190979 785.287109 322.789551 779.421692 310.455566 C 773.744141 298.516815 766.924316 290.953491 771.319641 286.314575 C 777.005432 280.313721 782.775085 293.621338 783.638916 293.63501 C 786.432617 293.679199 774.589478 282.527588 779.873596 276.479431 C 786.618774 268.758789 793.978455 287.026886 794.040588 287.04364 C 797.120361 287.878265 786.704041 274.864868 793.819824 270.91153 C 803.413635 265.581482 808.248108 291.625305 810.719177 291.92807 C 811.02832 291.965912 813.805786 286.308746 813.125793 285.257538 C 812.179016 283.793793 812.019775 283.960022 810.96991 282.558838 C 778.205383 238.830994 789.287476 170.820435 844.053223 135.566376 C 865.638428 121.671448 878.019836 121.497162 877.038635 119.077332 C 871.280884 104.875183 861.134583 95.811462 859.311157 94.182678 C 852.213135 87.842041 839.259094 81.842346 837.396667 84.054016 C 828.823547 94.234985 816.951477 88.890808 813.58313 82.666931 C 805.465698 67.667786 825.146851 54.561462 835.999634 65.560547 C 840.139221 69.755981 839.982422 73.801575 840.204285 75.253845 C 840.435181 76.765198 845.558716 77.164917 851.697266 80.218384 C 870.994812 89.81781 879.25531 106.604553 881.966492 111.508545 C 884.46051 116.019897 883.467834 118.314636 887.479065 117.426941 C 927.090393 108.660645 948.599182 117.957092 951.26416 116.781799 C 952.328125 116.312622 962.164063 86.908508 992.466248 76.996582 C 994.928589 76.191101 994.493652 75.610596 994.765381 73.619995 C 995.760498 66.329956 1003.749451 59.933777 1011.858459 61.839783 C 1029.448975 65.974304 1024.463867 90.390381 1008.646057 89.715576 C 1001.026672 89.390564 997.862976 84.462646 997.213318 83.95697 C 996.268799 83.221863 985.402405 85.96582 973.731079 97.101746 C 968.342651 102.243103 961.185364 113.371948 959.345947 118.474548 C 958.983826 119.479126 962.107483 119.955933 964.779358 120.806946 C 1060.472168 151.285706 1071.130859 270.366699 995.523987 310.256683 C 977.066467 319.994843 968.74646 318.928009 972.252808 320.968781 C 986.423523 329.2164 1005.213379 358.479065 1011.115112 380.362915 C 1013.624329 389.667175 1015.252075 389.51239 1014.13385 394.921936 C 1013.434875 398.302917 1014.224304 398.494873 1014.795471 400.243774 C 1021.753662 421.550415 1012.646484 435.586548 1004.861633 435.670288 C 1002.71637 435.69342 1002.643311 435.614014 1001.001709 437.009979 C 999.070984 438.651794 996.104065 438.573853 994.632507 437.555206 C 990.083679 434.406281 992.753418 429.245483 993.296753 427.310394 C 994.389221 423.419617 993.879395 418.389099 993.027466 418.877686 C 992.908752 418.94577 990.236572 427.745361 984.834473 426.894836 C 977.209717 425.694336 981.930359 416.469299 982.459534 411.109283 C 982.815796 407.501556 983.768311 407.064453 981.27478 404.440094 C 978.141418 401.142456 978.040955 395.917175 977.10675 392.821594 C 976.653015 391.318237 975.654053 391.209442 975.744995 392.213379 C 976.317688 398.53241 975.11438 398.544373 975.786438 401.362213 C 976.016418 402.326416 977.385132 408.064575 974.839539 413.716034 C 973.031921 417.729156 973.533386 417.879913 971.74054 421.8974 C 970.237 425.266907 970.67981 425.357727 971.148682 429.00415 C 973.510925 447.372192 972.394348 474.775452 972.2323 478.753052 C 972.180725 480.017456 974.38147 482.894348 973.583374 487.961975 C 972.659058 493.832153 969.401306 493.421143 970.943909 496.954651 C 970.100891 499.237305 970.256165 499.259827 970.507202 501.646667 C 968.85437 506.763519 972.35321 505.501251 977.452881 509.358826 C 988.276794 517.546387 985.108826 526.470398 984.903076 527.446655 C 979.049011 539.60553 952.99585 535.97821 945.870728 534.013123 C 929.64447 529.537903 931.48053 522.307983 931.236572 518.773132 C 931.203003 517.342163 930.88208 503.662323 930.236328 500.909424 C 930.336853 499.876282 929.993042 496.369049 929.954468 495.975525 Z"/><path id="path2" fill="#6b49b2" fill-rule="evenodd" stroke="none" d="M 970.507202 501.64679 C 1022.505127 505.470581 1051.57019 514.120361 1074.609253 523.175537 C 1090.599121 529.460022 1098.522827 536.924316 1100.264893 538.565552 C 1101.172974 539.420959 1101.264038 539.245605 1102.318848 539.963318 C 1093.15271 556.536255 1007.733215 570.304993 902.077576 568.737793 C 818.838745 567.503052 739.911255 556.168457 730.957703 540.127869 C 731.29303 539.877014 731.364868 540.192017 731.679932 539.956299 C 731.907166 539.786377 731.608704 539.713623 731.760193 539.527588 C 732.020569 539.208069 732.395447 539.000793 732.691772 538.714294 C 743.521545 528.24646 759.184875 520.945068 798.703552 512.030884 C 834.422058 503.973785 860.203552 502.899658 863.095398 502.035309 C 863.500671 503.345001 863.581238 503.317352 863.460693 504.692108 C 863.252502 507.067383 849.436523 508.123474 847.843506 523.624451 C 839.210449 523.676025 800.928223 534.18158 837.222473 543.464783 C 882.706116 555.098511 994.911255 550.381348 992.823792 533.937744 C 992.517639 531.526184 990.788391 530.534302 984.903076 527.446899 C 985.108826 526.470581 988.276794 517.546631 977.452881 509.359009 C 972.35321 505.501465 968.85437 506.763733 970.507202 501.646881 Z"/><path id="path3" fill="#fcfcfc" fill-rule="evenodd" stroke="none" d="M 833.225037 187.508453 C 876.053894 159.17804 924.15332 201.861053 904.55542 249.288666 C 904.126465 250.326721 901.882935 255.755981 897.051575 261.156189 C 890.356201 268.639771 886.146362 270.58551 881.029846 273.290649 C 880.195618 272.458679 880.360901 272.038513 879.360107 272.234009 C 859.160828 276.179199 833.273499 262.622223 825.313354 240.720367 C 813.663269 208.66571 835.218079 189.873169 834.186584 188.266998 C 833.965942 187.923492 833.445557 187.852142 833.224915 187.508575 Z"/><path id="path4" fill="#fbfbfc" fill-rule="evenodd" stroke="none" d="M 949.597595 333.810791 L 949.706909 334.304901 C 951.053589 341.555878 952.943481 351.454315 961.563538 361.381805 C 962.09613 361.927673 963.757263 363.688019 963.947205 363.889343 C 963.69696 364.528717 963.370911 364.420258 963.472168 365.102753 C 964.455017 371.727509 964.907593 389.909424 961.857483 400.259033 C 960.867859 403.617004 960.284058 404.541992 960.299438 404.641174 C 960.366638 405.07489 961.536377 405.333557 961.656433 405.360046 C 961.818909 405.395996 961.958862 405.141785 962.121399 405.177734 C 961.578186 405.38031 960.96521 405.686584 958.272583 406.612854 C 945.162109 411.12262 927.968933 411.906494 926.953003 411.729248 C 926.214539 411.600403 917.138977 401.708862 907.843079 410.957275 C 904.609497 414.174316 864.681641 406.166534 863.799011 400.289581 C 861.674377 386.143402 865.707214 368.873871 866.328918 366.211792 C 866.629028 366.038452 866.81189 366.346619 870.444824 363.317505 C 871.121338 362.511505 876.328064 356.307098 878.115845 352.632446 C 878.78363 351.259796 883.343262 341.887909 883.938171 334.461487 L 884.015991 334.226776 C 887.811401 335.986176 909.777222 340.441895 930.194885 338.005524 C 931.678223 337.828461 946.717285 336.033875 948.598633 334.843018 C 949.003296 334.586914 949.193115 334.066895 949.597717 333.810791 Z"/><path id="path5" fill="#fcfcfc" fill-rule="evenodd" stroke="none" d="M 1005.491638 187.599213 C 1003.979492 188.229156 1003.871155 188.12619 1003.858398 188.266876 C 1003.851318 188.345337 1027.654663 216.584778 1008.869995 248.438019 C 993.706421 274.15094 965.339478 273.11319 961.042786 272.955963 C 958.751526 272.872101 958.713257 272.693573 958.336792 273.035889 C 958.091187 273.259399 957.997437 273.618866 957.751709 273.842468 C 913.909607 252.560852 923.598633 193.180695 963.254883 180.852966 C 987.439209 173.334808 1004.744446 187.119385 1005.491577 187.599335 Z"/><path id="path6" fill="#fcfcfc" fill-rule="evenodd" stroke="none" d="M 876.179626 422.235474 C 890.321472 426.233398 898.877136 426.446106 906.39325 427.023438 C 908.270996 427.167725 909.033936 429.230194 911.911621 430.372498 C 920.872131 433.92923 924.679871 427.152771 927.513794 427.009125 C 955.063965 425.612793 964.701843 419.077759 965.932678 419.168823 C 966.120728 419.182678 966.525818 419.304413 965.586304 421.500549 C 962.574036 428.541107 959.089294 429.884521 962.00824 429.808929 C 963.843323 428.47876 963.745178 427.707123 964.928711 428.333862 C 965.112976 428.431519 967.499451 443.891907 967.122192 466.851196 C 966.901184 480.302856 966.263855 480.689575 965.268066 481.293945 C 956.952942 486.340088 943.995544 484.78772 942.140137 484.56543 C 943.533813 479.053711 936.421875 454.260193 941.405334 445.127716 C 944.014832 440.345551 948.881958 436.385437 945.350037 437.619629 C 909.906067 450.004944 887.147217 435.929474 886.899963 437.611694 C 886.466187 440.56311 894.921997 441.170441 893.700195 455.474182 C 891.570618 480.40451 891.601013 480.386902 891.218018 482.526184 C 891.187805 482.69519 891.114624 483.103577 892.37323 484.334442 C 891.30072 484.499634 884.430115 485.557526 878.81427 484.735168 C 872.386169 483.793884 868.319519 481.600159 867.543274 480.827087 C 866.04248 479.332642 865.336609 454.040863 867.78772 434.361023 C 868.182007 431.195496 868.148621 427.32959 870.055237 428.648712 C 870.656372 429.064514 871.22998 429.518982 871.831116 429.934875 C 872.412659 430.477417 873.602966 431.588013 880.516418 434.772583 C 889.893921 439.091949 877.411926 430.084229 876.179626 422.235565 Z"/><path id="path7" fill="#261a52" fill-rule="evenodd" stroke="none" d="M 862.52887 497.617859 C 863.638062 500.218384 863.093933 500.296692 863.09552 502.035309 C 860.203674 502.89978 834.422119 503.973785 798.703674 512.030884 C 759.184937 520.94519 743.521606 528.246521 732.691833 538.714294 C 732.395447 539.000732 732.020691 539.207947 731.760315 539.527588 C 731.608826 539.713562 731.907227 539.786377 731.680054 539.956299 C 731.36499 540.192017 731.293152 539.877136 730.957825 540.127869 C 726.321838 533.944336 739.07312 526.422485 757.159912 518.891907 C 759.012024 518.120789 758.288269 517.434143 762.752075 500.444824 C 764.242615 494.771729 766.109741 495.023499 770.447144 491.51828 C 772.03186 490.237793 776.411865 470.306946 778.341614 466.935669 C 780.81488 462.614777 798.366333 457.22644 799.272217 456.983459 C 803.77301 455.775879 805.06073 455.582092 818.025391 471.351196 C 820.149719 473.934967 820.360657 473.7659 823.6604 474.326141 C 828.890686 475.214111 829.222412 475.827087 834.855591 488.010834 C 839.87854 498.874634 839.236511 500.208618 841.503601 499.922729 C 860.817566 497.486542 860.862976 497.913544 862.528931 497.617859 Z"/><path id="path8" fill="#040605" fill-rule="evenodd" stroke="none" d="M 901.217041 235.365845 C 893.861328 271.519592 847.169983 267.845093 842.258301 234.751282 C 837.723572 204.197266 874.447876 185.302979 894.79541 209.568848 C 896.356689 211.430756 899.35791 216.46637 900.481323 220.7164 C 902.712463 229.156677 901.259583 234.996918 901.21698 235.365936 Z"/><path id="path9" fill="#040505" fill-rule="evenodd" stroke="none" d="M 995.344177 232.648529 C 994.969238 235.223389 994.572937 241.60791 989.521545 248.724579 C 971.709534 273.818909 931.236572 258.186462 936.368347 224.54425 C 941.424622 191.396484 989.158936 188.686371 995.173889 225.041351 C 995.805115 228.856323 995.553467 228.834503 995.344177 232.648529 Z"/><path id="path10" fill="#4b3288" fill-rule="evenodd" stroke="none" d="M 902.242615 518.223633 C 903.689087 518.695923 925.32074 517.559021 931.236694 518.773193 C 931.480591 522.308105 929.644592 529.538025 945.87085 534.013245 C 952.995972 535.978394 979.049133 539.605713 984.903198 527.446777 C 990.788452 530.534302 992.517761 531.526062 992.823914 533.937622 C 994.911316 550.381226 882.706238 555.098389 837.222595 543.464722 C 800.928467 534.181458 839.210632 523.675903 847.843567 523.62439 C 848.103638 525.835938 847.760071 525.884766 848.717163 527.870728 C 853.455933 537.703735 875.485962 536.006897 877.166809 535.841553 C 905.755798 533.028564 902.168335 519.714478 902.242615 518.223633 Z"/><path id="path11" fill="#c7a7ec" fill-rule="evenodd" stroke="none" d="M 954.818665 130.477875 C 956.097839 130.359558 956.05011 129.468536 956.859192 129.647583 C 961.928711 130.769531 986.255676 137.969727 1005.285461 156.465179 C 1053.298462 203.129913 1043.264282 276.080078 986.912292 303.29184 C 977.503479 307.835236 974.097473 308.154327 970.530029 310.016876 C 969.441345 308.525696 969.301208 308.699585 968.185425 307.200439 C 967.386719 306.12735 971.920471 305.497864 981.977966 298.375702 C 989.751221 292.871063 995.519226 285.765656 997.599426 282.769165 C 999.31543 280.297272 999.151001 280.117371 1000.009949 279.726074 C 1044.279541 259.556335 1041.354736 198.411072 1002.797302 178.323486 C 999.505493 176.608521 998.720825 177.26239 996.436646 173.518982 C 981.83374 149.5867 952.94519 139.574982 952.943298 139.572296 C 952.383972 138.834137 954.610779 131.191132 954.818665 130.477997 Z"/><path id="path12" fill="#ae8aea" fill-rule="evenodd" stroke="none" d="M 881.11731 129.810394 C 883.329041 137.6185 883.412354 138.310425 883.503784 139.069916 C 883.971191 142.953583 879.087219 138.41571 857.76825 155.321899 C 855.323242 153.099976 855.736145 149.530853 851.745117 150.293274 C 848.652161 150.884216 839.274963 157.396271 831.295898 166.706879 C 828.895325 169.508087 820.936646 178.118042 830.160706 179.427185 C 830.331909 179.451447 830.50293 179.362732 830.675842 179.365814 C 830.810364 179.368256 831.210266 179.375244 831.352295 180.905548 C 823.405701 186.386414 817.715515 191.789581 812.660522 201.155121 C 811.102234 204.042053 801.907043 221.078156 807.042542 241.776978 C 814.20459 270.644012 838.031433 279.217957 838.72998 280.262177 C 840.397888 282.755188 849.661072 296.60144 866.515381 305.436798 C 868.784119 306.62616 866.691223 307.044495 864.946167 308.944244 C 856.019836 305.587677 851.251099 304.013367 839.685059 296.178253 C 838.587097 295.434448 831.392517 290.56073 826.922241 285.599854 C 821.49469 279.576599 821.424622 279.655273 820.976685 279.112152 C 794.133789 246.569946 798.947937 205.406952 816.25592 178.104584 C 839.692017 141.135773 873.719604 133.056732 879.289612 130.716522 C 880.29071 130.295929 880.648926 131.258453 881.237549 130.329803 C 881.332703 130.179688 881.021851 129.960388 881.117065 129.810181 Z"/><path id="path13" fill="#6d4ab3" fill-rule="evenodd" stroke="none" d="M 783.00238 468.439667 C 784.529175 467.374878 800.841431 459.335388 803.537659 461.547974 C 806.2323 463.759308 816.443359 477.304199 818.223572 477.705414 C 823.486267 478.891693 824.81311 477.298035 827.198914 482.120636 C 827.907959 483.553833 835.514587 498.929993 835.17334 500.448639 C 835.040405 501.040222 822.093018 503.109467 819.895813 502.930054 C 816.310974 494.29657 810.045776 487.11853 810.512268 490.092834 C 811.520203 496.520813 813.495056 502.985657 813.831116 504.085938 C 812.561707 504.622375 796.755127 507.775391 796.083557 507.813446 C 796.041565 507.27832 792.245789 474.86734 792.145813 473.890869 C 791.922119 471.707092 790.221436 471.811432 784.830139 469.308228 C 783.13501 468.521179 783.149414 468.507751 783.002625 468.439667 Z"/><path id="path14" fill="#fcfcfc" fill-rule="evenodd" stroke="none" d="M 860.915039 326.573914 C 861.849426 326.255859 865.755676 324.471649 866.366638 325.671387 C 868.907043 330.66037 865.399231 345.686768 865.003601 347.3815 C 864.671997 347.272217 864.545532 346.802795 864.21405 346.69339 C 864.046997 346.638245 836.347961 364.015289 814.532166 341.81369 C 812.322632 339.565063 809.910706 335.628174 808.411743 335.140808 C 808.24939 335.088043 808.080322 335.329498 807.91803 335.276855 C 826.36554 328.718658 823.716309 319.591461 826.838257 322.477875 C 836.416138 331.333374 840.54364 333.147552 860.915161 326.573914 Z"/><path id="path15" fill="#e5e1eb" fill-rule="evenodd" stroke="none" d="M 1005.491638 187.599213 C 1037.944946 213.139984 1027.445923 252.453033 1007.930664 267.562347 C 984.417725 285.766815 960.98468 275.066376 957.751831 273.842346 C 957.997437 273.618866 958.091187 273.259399 958.336914 273.035797 C 958.713257 272.693359 958.751526 272.872009 961.042908 272.955872 C 965.3396 273.113068 993.706482 274.150726 1008.870056 248.437897 C 1027.654785 216.584686 1003.851379 188.345337 1003.858521 188.266785 C 1003.871216 188.12619 1003.979553 188.229034 1005.49176 187.599121 Z"/><path id="path16" fill="#e7e3ec" fill-rule="evenodd" stroke="none" d="M 833.225037 187.508453 C 833.445618 187.851929 833.966064 187.923309 834.186646 188.266876 C 835.218201 189.873077 813.663269 208.665588 825.313477 240.720245 C 833.27356 262.622131 859.161011 276.179108 879.360229 272.233917 C 880.361023 272.038422 880.19574 272.458679 881.029968 273.290558 C 823.540222 297.003235 786.276794 222.626465 833.225037 187.508453 Z"/><path id="path17" fill="#ac35d6" fill-rule="evenodd" stroke="none" d="M 957.350037 323.700928 C 935.310425 333.108337 893.606384 332.005371 873.999695 322.323425 C 863.503235 317.140228 869.219788 308.310822 874.393616 310.731934 C 895.999695 320.842407 935.06311 322.742065 960.614075 310.767151 C 964.718079 308.843719 966.17572 313.481506 966.227051 314.856689 C 966.441833 320.609283 959.018494 322.906708 957.349915 323.700928 Z"/><path id="path18" fill="#fcfcfc" fill-rule="evenodd" stroke="none" d="M 972.047485 328.110748 C 994.875 346.045227 1006.992065 383.431488 1005.969971 384.652222 C 1005.18689 385.587585 1004.727905 384.572693 991.38855 389.115173 C 991.321533 388.921143 991.322266 388.958496 990.488159 386.712677 C 988.572266 381.554413 983.405396 364.612579 971.122192 349.670868 C 970.315552 348.689636 970.096008 349.158081 969.138184 350.011505 C 968.723511 348.362549 965.711792 336.38446 966.821655 328.88446 C 966.890381 329.049194 966.681885 329.250397 966.750549 329.415161 C 967.22168 330.545563 967.424255 330.428314 967.430176 330.532867 C 967.440491 330.715088 967.326721 330.89212 967.344666 331.073853 C 967.427124 331.913788 968.683594 330.838257 968.772339 330.762268 C 970.4328 329.34082 970.953674 329.956268 972.047607 328.110748 Z"/><path id="path19" fill="#faf9fa" fill-rule="evenodd" stroke="none" d="M 954.818665 130.477875 C 956.27063 126.21463 955.650024 125.42688 957.251953 125.36441 C 958.121582 125.330505 994.404358 134.55661 1016.436096 162.670776 C 1026.450073 175.449371 1042.961182 199.849426 1038.2323 239.631714 C 1034.324341 272.507751 1010.736755 298.763367 982.10083 309.885315 C 972.099243 313.769836 971.591309 313.437195 971.354675 312.667938 C 971.289368 312.455719 971.29364 312.471588 970.530029 310.016998 C 974.097473 308.154449 977.503479 307.835449 986.912292 303.291931 C 1043.264282 276.08017 1053.29834 203.130157 1005.285461 156.465271 C 986.255676 137.969818 961.928711 130.769623 956.859192 129.647705 C 956.05011 129.468628 956.097839 130.359558 954.818665 130.477997 Z"/><path id="path20" fill="#e6e2ec" fill-rule="evenodd" stroke="none" d="M 892.37323 484.334351 C 891.114624 483.103394 891.187805 482.695007 891.218018 482.526062 C 891.601135 480.38678 891.570618 480.40451 893.700195 455.47406 C 894.922119 441.170349 886.466187 440.562988 886.899963 437.611603 C 887.147217 435.929382 909.906067 450.004944 945.350037 437.619568 C 948.881958 436.385315 944.014832 440.345459 941.405334 445.127625 C 936.421875 454.260132 943.533813 479.053619 942.140137 484.565308 C 936.11615 483.323181 933.71344 482.346191 933.440186 480.374115 C 933.13446 478.168091 930.020081 455.69458 929.833618 452.770081 C 929.71051 450.840027 936.6427 446.891357 937.332031 445.254608 C 938.391418 442.739319 933.834412 446.337769 925.309814 447.682312 C 908.561218 450.324036 896.309631 444.065063 896.116455 444.092377 C 895.328247 444.20401 896.473755 446.355347 901.893127 450.341644 C 904.561157 452.304169 903.383545 453.500519 902.827393 458.221283 C 902.634033 459.863098 901.590637 468.720398 900.26886 478.727081 C 899.869751 481.749176 899.911072 482.736694 892.373047 484.334351 Z"/><path id="path21" fill="#f9f8fa" fill-rule="evenodd" stroke="none" d="M 881.11731 129.810394 C 881.022095 129.96051 881.332947 130.179779 881.237732 130.329987 C 880.64917 131.258636 880.290894 130.296051 879.289856 130.716736 C 873.719788 133.056824 839.692139 141.135864 816.256165 178.104797 C 798.948059 205.407196 794.13385 246.57016 820.976929 279.112366 C 821.424927 279.655487 821.494873 279.576813 826.922424 285.600067 C 831.3927 290.560822 838.58728 295.434692 839.685242 296.178467 C 851.251282 304.01355 856.019958 305.58786 864.94635 308.944427 C 863.543274 312.155273 863.520081 312.174896 863.287476 312.371552 C 862.333984 313.17746 840.200134 304.028625 825.965698 290.359406 C 825.2099 289.633636 826.210449 281.756439 819.855713 281.569641 C 818.183289 281.520477 817.892334 281.786224 816.26709 279.543213 C 775.218994 222.894684 811.479126 154.13681 863.744812 132.181091 C 876.643555 126.762604 879.761414 125.781067 880.297729 127.202515 C 880.619446 128.055176 880.795532 128.957947 881.11731 129.810608 Z"/><path id="path22" fill="#060707" fill-rule="evenodd" stroke="none" d="M 922.847229 374.826172 C 918.277832 359.986359 918.482483 359.606842 917.204041 359.259949 C 915.109558 358.69162 914.165405 364.132324 914.015808 364.622742 C 910.012573 377.754364 909.723755 377.986755 908.566101 378.086609 C 895.689392 379.19751 895.652039 382.55603 894.687622 381.267975 C 894.212646 380.633667 902.837341 358.422241 903.600891 356.456116 C 907.197266 347.194427 906.973999 344.155762 911.816895 344.102631 C 924.551941 343.962891 924.580322 344.4953 925.338196 345.139954 C 926.692505 346.291992 935.541016 372.223328 938.478882 379.707336 C 939.766357 382.987183 936.597351 380.555664 936.593079 380.553772 C 932.473328 378.656952 925.758911 378.207581 924.797913 378.143219 C 923.602478 378.063202 923.032776 375.342773 922.847351 374.82605 Z"/><path id="path23" fill="#493085" fill-rule="evenodd" stroke="none" d="M 783.00238 468.439667 C 783.149231 468.507751 783.134888 468.521179 784.829956 469.308228 C 790.221375 471.811432 791.921997 471.707092 792.145569 473.890869 C 792.245544 474.867432 796.041382 507.27832 796.083374 507.813446 C 782.704468 511.321228 775.853088 512.648193 764.651917 516.5271 C 764.559387 516.559082 763.380188 516.967468 763.511902 516.079102 C 763.561279 515.745972 767.456909 499.791016 768.108582 498.851563 C 770.232666 495.789124 774.045044 496.971497 775.759033 491.268829 C 780.903748 474.152161 781.218689 470.312714 783.00238 468.439667 Z"/><path id="path24" fill="#261a51" fill-rule="evenodd" stroke="none" d="M 970.943909 496.954865 C 973.644592 497.552795 983.222534 497.868042 992.922974 498.986816 C 998.701233 499.653229 999.638367 500.872375 1001.690552 498.285614 C 1006.99176 491.604065 1007.930298 490.64093 1019.413391 493.534668 C 1027.740479 495.63324 1024.737427 503.996979 1028.62793 504.83313 C 1034.094727 506.007874 1034.063599 505.977112 1039.515259 507.271118 C 1043.428589 508.199951 1070.371338 514.595337 1086.997559 523.795898 C 1099.126221 530.50769 1105.122681 534.370117 1102.318848 539.963318 C 1101.26416 539.245483 1101.172974 539.420959 1100.264893 538.565552 C 1098.522827 536.924316 1090.599121 529.460205 1074.609253 523.175537 C 1051.57019 514.120361 1022.505066 505.470581 970.507202 501.64679 C 970.256042 499.26001 970.100769 499.237427 970.943909 496.954773 Z"/><path id="path25" fill="#fbfbfb" fill-rule="evenodd" stroke="none" d="M 929.954529 495.975647 C 928.285522 496.699158 928.257202 496.315247 926.418945 496.264465 C 919.337769 496.068909 905.196716 496.465576 903.845642 496.362793 C 903.396606 495.99353 903.410583 496.037964 903.396606 495.99353 C 902.432617 492.924866 909.314575 493.293396 905.88916 480.907837 C 905.52594 479.594482 908.003723 463.517273 908.235779 462.01178 C 909.330994 454.905518 908.919434 453.782715 911.272949 453.91217 C 917.23645 454.240173 917.209045 454.008118 923.171814 453.902527 C 923.975708 453.888306 924.112488 454.855377 924.128479 454.968781 C 926.983032 475.162903 927.982178 479.357208 927.20343 482.068207 C 924.895691 490.100616 929.928467 493.666138 929.954651 495.975647 Z"/><path id="path26" fill="#4d4c50" fill-rule="evenodd" stroke="none" d="M 947.588989 145.327759 C 964.175171 150.724579 972.627502 156.72406 983.665161 168.351044 C 983.761292 168.452301 988.864563 174.852295 983.630371 170.09549 C 976.550781 163.66153 959.518982 155.059784 948.030762 152.144928 C 904.892761 141.199707 875.601135 157.186066 867.56842 161.425751 C 860.297485 165.263306 855.260803 169.837341 854.301941 170.708252 C 850.773926 173.912262 854.771851 166.338928 866.007141 157.662781 C 883.27002 144.331848 913.831665 135.40567 947.589111 145.32785 Z"/><path id="path27" fill="#e5e1eb" fill-rule="evenodd" stroke="none" d="M 807.917908 335.276855 C 808.0802 335.32962 808.249268 335.088135 808.411621 335.140808 C 809.910706 335.628174 812.32251 339.565063 814.532043 341.81369 C 836.347839 364.015411 864.046875 346.638367 864.213928 346.69339 C 864.545532 346.802673 864.671997 347.272125 865.00354 347.3815 C 862.374939 357.949738 862.593506 358.727142 859.231628 360.015076 C 834.460388 369.505371 816.009766 355.78009 813.014343 353.551666 C 807.259155 349.270325 798.099487 336.999969 800.433594 336.694336 C 804.217712 336.198853 804.186584 336.267731 807.917908 335.276733 Z"/><path id="path28" fill="#ede9f2" fill-rule="evenodd" stroke="none" d="M 947.666382 127.728729 C 946.364197 132.00528 946.569458 132.018951 945.328247 136.328125 C 944.559143 138.998108 937.482422 133.143494 911.270081 134.61676 C 897.254517 135.40448 891.496094 138.995575 890.892944 136.826141 C 889.848328 133.068848 890.072205 133.06015 888.947754 129.352936 C 889.521301 128.463745 889.09668 128.018585 890.161926 127.831146 C 900.208984 126.062408 900.157227 125.88092 901.035339 125.767181 C 926.405762 122.480682 945.659668 126.902985 945.869141 126.921234 C 947.444946 127.058594 947.310913 127.569 947.666504 127.728638 Z"/><path id="path29" fill="#6a48b2" fill-rule="evenodd" stroke="none" d="M 903.228882 500.983978 C 921.617615 500.581879 926.625122 500.77652 930.23645 500.909607 C 930.882141 503.662415 931.203064 517.342285 931.236694 518.773193 C 925.32074 517.559021 903.689209 518.695923 902.242615 518.223633 C 902.547241 502.844543 902.753601 502.281097 903.228882 500.983978 Z"/><path id="path30" fill="#fbfbfb" fill-rule="evenodd" stroke="none" d="M 821.797241 303.459656 C 822.170532 300.158386 822.190002 300.196777 823.097473 296.991577 C 823.360535 296.062683 824.712708 297.331665 824.816162 297.42868 C 828.311829 300.709137 843.796753 312.502441 861.599121 318.439178 C 861.732056 318.48349 864.356445 319.358643 862.669495 319.826691 C 858.878479 320.878448 843.027527 327.712036 835.703918 322.709076 C 826.369995 316.332825 829.147766 312.219208 822.932983 308.066132 C 820.724609 306.590332 821.441772 306.085052 821.797363 303.459564 Z"/><path id="path31" fill="#fcfcfc" fill-rule="evenodd" stroke="none" d="M 857.76825 155.321899 C 856.608093 156.46167 856.528503 156.397949 856.037109 157.956665 C 854.552551 162.665558 852.961609 161.504181 851.174133 162.16803 C 849.682373 162.722076 843.494446 170.840454 841.696655 173.784332 C 839.268616 177.760254 838.345886 176.753754 831.352539 180.905548 C 831.210327 179.375336 830.810608 179.368256 830.676025 179.365814 C 830.503113 179.362732 830.332153 179.451447 830.16095 179.427185 C 820.936829 178.118042 828.895569 169.508087 831.296143 166.706879 C 839.275085 157.396271 848.652283 150.884216 851.7453 150.293274 C 855.736389 149.530731 855.323364 153.099976 857.768433 155.321899 Z"/><path id="path32" fill="#b473d1" fill-rule="evenodd" stroke="none" d="M 867.498413 415.386902 C 866.998169 415.069916 863.369202 414.097595 862.625671 408.423401 C 862.540527 407.773773 861.965271 404.255005 863.662354 405.201599 C 879.903748 414.260406 898.975708 414.417419 904.207458 415.115845 C 905.822815 415.331451 904.997192 416.029236 904.766357 417.621765 C 904.392883 420.199463 905.425964 422.672455 904.949463 423.177185 C 904.661499 423.482178 884.4552 423.316376 867.498352 415.38678 Z"/><path id="path33" fill="#cb43c6" fill-rule="evenodd" stroke="none" d="M 949.725769 412.422546 C 950.199158 412.321106 961.378418 410.261169 969.746704 405.269409 C 972.499207 403.627625 970.405457 410.692017 970.271423 411.144348 C 967.641907 420.016907 930.074158 424.234131 928.785767 423.309998 C 928.343933 422.993042 928.594116 422.909363 928.916504 420.846252 C 929.396606 417.773468 927.64093 415.269775 929.683777 415.135132 C 939.791199 414.468933 939.772644 414.428436 949.725769 412.422485 Z"/><path id="path34" fill="#e5e1eb" fill-rule="evenodd" stroke="none" d="M 969.138184 350.011719 C 970.096008 349.158295 970.315552 348.689819 971.122192 349.671082 C 983.405518 364.612793 988.572388 381.554504 990.488159 386.712891 C 991.322266 388.958679 991.321411 388.921356 991.38855 389.115356 C 983.211121 392.264404 982.938171 392.376221 982.570313 391.73877 C 981.939148 390.64502 982.350586 390.484222 976.48053 377.175354 C 973.063293 369.42749 974.199646 369.112823 972.185486 360.874969 C 971.699463 358.887115 970.375366 354.571136 969.138184 350.01181 Z"/><path id="path35" fill="#6c47b5" fill-rule="evenodd" stroke="none" d="M 1053.124878 304.276062 C 1062.419067 299.066254 1059.258057 291.191193 1061.203857 288.957367 C 1063.727295 286.060577 1061.94043 295.514099 1066.763916 301.634338 C 1069.798218 305.484406 1081.097534 306.38562 1075.116699 308.124847 C 1064.466675 311.222046 1065.233521 313.183594 1062.800049 321.896393 C 1062.292969 323.712372 1061.17749 323.354584 1060.820801 321.81485 C 1058.142944 310.251892 1056.066406 311.004181 1047.595215 307.806396 C 1044.837646 306.765442 1048.709839 306.105743 1053.125 304.276062 Z"/><path id="path36" fill="#e6e2eb" fill-rule="evenodd" stroke="none" d="M 884.75946 330.200073 C 912.631409 337.121155 935.171997 333.645386 949.150146 330.419525 C 949.159912 330.693054 949.208984 330.64502 949.597595 333.810883 C 949.192993 334.067017 949.003235 334.587006 948.598572 334.84314 C 946.717163 336.033966 931.678101 337.828674 930.194824 338.005615 C 909.7771 340.442108 887.811401 335.986267 884.01593 334.226898 C 884.482544 331.068329 884.475159 331.08783 884.52002 330.815704 C 884.577576 330.465942 884.701904 330.5495 884.75946 330.200073 Z"/><path id="path37" fill="#a39db9" fill-rule="evenodd" stroke="none" d="M 872.680359 330.000336 C 874.656311 332.133972 875.755554 332.050446 883.938293 334.461578 C 883.343323 341.888 878.783752 351.259888 878.115967 352.632568 C 876.328186 356.30719 871.121399 362.511597 870.444946 363.317627 C 866.812012 366.346741 866.62915 366.038452 866.328979 366.211884 C 866.927979 358.419281 873.11322 345.325806 872.680359 330.000458 Z"/><path id="path38" fill="#8f69c8" fill-rule="evenodd" stroke="none" d="M 867.3797 484.840546 C 869.900818 486.169434 883.847961 492.194885 899.827026 485.5896 C 902.08606 484.655762 901.976746 486.106232 901.475647 488.47403 C 901.176575 489.886658 901.314392 494.8703 888.011658 496.028564 C 881.395264 496.604584 867.074585 495.563751 865.207825 489.05426 C 865.112732 488.722656 864.511169 486.625183 864.942688 484.750305 C 865.314575 483.134216 865.956909 484.026428 867.3797 484.840637 Z"/><path id="path39" fill="#8f69c9" fill-rule="evenodd" stroke="none" d="M 968.715271 485.778656 C 968.486511 488.601471 969.520325 493.483887 955.661377 495.683105 C 953.140076 496.083191 932.692749 498.139435 931.870117 487.943237 C 931.700378 485.840271 931.652466 484.650452 933.580017 485.538635 C 946.171082 491.34082 961.306335 487.445679 965.792053 485.037903 C 966.600647 484.603943 968.353455 482.555511 968.715271 485.778564 Z"/><path id="path40" fill="#d442a8" fill-rule="evenodd" stroke="none" d="M 761.868896 405.098877 C 766.113892 398.133911 763.849121 393.024292 766.32428 393.780273 C 766.735657 393.905884 767.46637 397.768585 767.533386 398.122894 C 770.052246 411.438446 777.90271 407.859131 779.709717 410.152496 C 781.900513 412.933014 773.465454 409.874329 768.711914 418.299927 C 767.588623 420.290955 766.650269 431.576691 764.498108 421.98822 C 762.029053 410.988007 752.756226 412.569061 752.1745 411.17627 C 751.114685 408.63855 756.514771 410.899597 761.868774 405.098877 Z"/><path id="path41" fill="#f9f9f9" fill-rule="evenodd" stroke="none" d="M 947.666382 127.728729 C 947.310791 127.569 947.444824 127.058716 945.869019 126.921326 C 945.659546 126.903107 926.405701 122.480774 901.035217 125.767303 C 900.157166 125.881012 900.208862 126.062408 890.161804 127.831238 C 889.096558 128.018768 889.521179 128.463837 888.947632 129.353058 C 888.862366 129.071289 886.722107 124.226898 888.511597 123.766724 C 914.226807 117.153015 948.061279 121.93515 948.877197 123.456757 C 948.998657 123.68338 947.777466 127.391296 947.666382 127.728729 Z"/><path id="path42" fill="#a988d1" fill-rule="evenodd" stroke="none" d="M 910.860535 412.359253 C 920.762451 405.710754 927.330627 415.526642 925.51709 421.463684 C 921.162231 435.71991 899.442688 424.423035 910.860535 412.359253 Z"/><path id="path43" fill="#a9a4be" fill-rule="evenodd" stroke="none" d="M 961.176575 330.531708 C 961.14032 336.668457 961.100586 339.148438 963.859436 351.060699 C 963.774536 351.211029 964.072083 351.412445 963.987183 351.562775 C 963.872803 351.765381 962.719482 351.399933 962.570679 357.065704 C 962.509827 359.381866 963.064453 359.581726 961.563538 361.381714 C 952.943481 351.454224 951.053589 341.555756 949.706909 334.304779 C 954.827148 333.651642 959.822876 331.590546 961.176575 330.531586 Z"/><path id="path44" fill="#452e7f" fill-rule="evenodd" stroke="none" d="M 1032.406494 532.905273 C 1040.948608 526.590698 1064.218628 530.537354 1068.132202 536.593567 C 1058.226563 541.999329 1037.100708 538.040894 1032.406494 532.905273 Z"/><path id="path45" fill="#462f82" fill-rule="evenodd" stroke="none" d="M 988.573425 551.920837 C 988.87915 551.630493 989.039063 551.208801 989.344788 550.918396 C 993.687744 546.793335 1017.201843 544.467041 1024.409668 552.014587 C 1017.247742 557.624573 993.967163 556.666504 988.573425 551.920837 Z"/><path id="path46" fill="#e5e1eb" fill-rule="evenodd" stroke="none" d="M 963.947205 363.889343 C 965.500732 365.167755 965.452637 365.206451 967.247559 366.082306 C 968.305115 368.289215 971.100586 385.15451 970.015442 398.676788 C 969.751892 401.960754 969.03418 402.076965 962.121582 405.177734 C 961.959045 405.141785 961.819153 405.395996 961.656616 405.360046 C 961.536682 405.333557 960.366882 405.07489 960.299622 404.641174 C 960.284241 404.541992 960.868103 403.617004 961.857727 400.259033 C 964.907715 389.909424 964.455139 371.727509 963.472412 365.102753 C 963.371155 364.420258 963.697144 364.528717 963.947449 363.889343 Z"/><path id="path47" fill="#9e7fcd" fill-rule="evenodd" stroke="none" d="M 822.044678 313.744293 C 823.9104 316.370148 826.116028 319.095428 816.462769 327.112335 C 810.501526 332.063049 798.5672 335.501068 795.747803 331.96405 C 793.726379 329.427979 793.518982 326.702179 794.965881 326.65033 C 801.073914 326.431519 801.200928 326.87793 806.80835 324.434875 C 816.901001 320.037781 819.93512 312.825684 820.418335 312.738342 C 821.286804 312.581238 821.959656 313.653564 822.044678 313.744293 Z"/><path id="path48" fill="#454449" fill-rule="evenodd" stroke="none" d="M 906.402771 289.969391 C 896.260925 282.824646 897.599243 273.533752 898.467102 272.88623 C 900.741089 271.189697 901.007935 276.584167 901.459839 278.08902 C 906.045532 293.358093 932.101135 295.99231 935.834656 274.302979 C 936.2229 272.047974 938.490112 272.332275 938.706787 274.295044 C 939.876038 284.887543 923.828613 300.378601 906.402771 289.969391 Z"/><path id="path49" fill="#d839b5" fill-rule="evenodd" stroke="none" d="M 906.105347 386.787109 C 906.214661 383.617737 906.073059 383.595825 906.372253 382.978485 C 907.192688 381.285767 907.342834 384.894592 915.071777 385.617065 C 923.688049 386.422424 927.284729 382.212524 927.393311 384.110809 C 927.755432 390.443817 925.268799 392.014526 921.407471 394.686035 C 916.737732 397.916809 920.404358 403.072327 917.854431 401.228424 C 913.195801 397.859619 915.205811 392.80719 913.793823 391.302002 C 911.580383 388.94281 908.904846 393.120972 908.658997 393.06427 C 906.672302 392.606567 906.157898 387.326508 906.105347 386.786896 Z"/><path id="path50" fill="#9c7dcb" fill-rule="evenodd" stroke="none" d="M 1009.423645 392.183075 C 1009.364929 395.67038 1007.951599 395.073944 999.504456 397.78363 C 995.837708 398.959869 986.516907 401.850098 985.966064 401.702209 C 984.467224 401.299896 981.804626 396.753174 983.88385 395.705475 C 986.515747 394.37915 1006.942444 386.60965 1008.483765 388.539734 C 1008.953735 389.128204 1009.377869 391.885712 1009.423645 392.183167 Z"/><path id="path51" fill="#fbfbfb" fill-rule="evenodd" stroke="none" d="M 961.49884 210.543701 C 970.885925 220.269073 952.193542 229.525604 949.796692 216.914886 C 948.834961 211.855011 954.872009 205.806091 961.49884 210.543701 Z"/><path id="path52" fill="#fbfafa" fill-rule="evenodd" stroke="none" d="M 869.745972 215.852539 C 868.691284 229.197571 850.14093 221.648071 856.893494 211.717834 C 859.381104 208.059509 868.59375 206.479095 869.745972 215.852539 Z"/><path id="path53" fill="#462f81" fill-rule="evenodd" stroke="none" d="M 791.235596 542.161682 C 786.466248 547.043091 767.565063 546.695129 763.562012 542.756897 C 767.78717 537.15155 787.943787 537.057251 791.235596 542.161682 Z"/><path id="path54" fill="#281c56" fill-rule="evenodd" stroke="none" d="M 988.573425 551.920837 C 988.410522 551.78125 987.044006 550.609802 987.18634 549.625244 C 988.55658 540.146118 1034.334229 542.660706 1024.409668 552.014709 C 1017.201843 544.467163 993.687744 546.793335 989.344788 550.918457 C 989.039063 551.208862 988.87915 551.630615 988.573425 551.920959 Z"/><path id="path55" fill="#281b55" fill-rule="evenodd" stroke="none" d="M 1032.406494 532.905273 C 1025.963501 525.019897 1057.394409 523.344849 1068.114136 531.803589 C 1071.183472 534.225586 1068.434937 536.358643 1068.132202 536.593567 C 1064.21875 530.537354 1040.94873 526.590698 1032.406616 532.905273 Z"/><path id="path56" fill="#261a51" fill-rule="evenodd" stroke="none" d="M 929.954529 495.975647 C 929.993164 496.369141 930.336914 499.876404 930.23645 500.909607 C 926.625122 500.776428 921.617615 500.581787 903.228882 500.983978 C 902.852722 498.439667 903.121338 497.438171 903.200989 497.141235 C 903.288269 496.815857 903.758301 496.68811 903.845642 496.362793 C 905.196716 496.465485 919.337646 496.068817 926.418945 496.264465 C 928.257263 496.315247 928.285583 496.699249 929.954529 495.975647 Z"/><path id="path57" fill="#281c56" fill-rule="evenodd" stroke="none" d="M 791.235596 542.161682 C 787.943787 537.05719 767.787048 537.15155 763.562012 542.756897 C 754.960449 536.10022 786.881836 531.500977 792.144653 538.871948 C 793.262756 540.437927 791.443604 541.984863 791.235596 542.161804 Z"/><path id="path58" fill="#e7e4ec" fill-rule="evenodd" stroke="none" d="M 876.179626 422.235474 C 877.411926 430.084106 889.893921 439.091949 880.516418 434.772461 C 873.602966 431.588013 872.412537 430.477325 871.831116 429.934753 C 874.424194 429.686279 871.061523 428.726837 867.430054 420.336884 C 866.408386 417.976563 868.608459 419.801392 876.179749 422.235352 Z"/><path id="path59" fill="#fcfbfc" fill-rule="evenodd" stroke="none" d="M 916.678528 424.869141 C 909.543457 423.935181 910.391235 416.459778 914.043884 414.501465 C 921.800476 410.342896 926.497986 424.181335 916.678528 424.869141 Z"/><path id="path60" fill="#493186" fill-rule="evenodd" stroke="none" d="M 1002.712402 526.852295 C 1002.450378 526.720886 999.45105 525.217651 1000.710693 523.782349 C 1004.75531 519.173401 1022.194031 523.423157 1017.648926 526.654236 C 1013.19635 529.81958 1003.862244 527.177734 1002.712402 526.852295 Z"/><path id="path61" fill="#483085" fill-rule="evenodd" stroke="none" d="M 805.26123 527.811157 C 804.920776 527.743164 801.846558 527.129395 801.077087 526.66394 C 795.576904 523.337708 813.15686 519.351746 816.899109 523.867004 C 817.526367 524.623962 818.528625 528.680908 805.26123 527.811035 Z"/><path id="path62" fill="#414044" fill-rule="evenodd" stroke="none" d="M 956.167664 511.195007 C 968.016541 506.936096 975.403687 515.220459 976.501343 517.781067 C 977.536194 520.195068 976.050232 521.698425 974.25 519.64801 C 965.944214 510.187866 955.317261 513.804565 953.987122 513.409485 C 952.708801 513.029724 955.947876 511.311462 956.167542 511.195007 Z"/><path id="path63" fill="#414045" fill-rule="evenodd" stroke="none" d="M 867.369751 514.221252 C 859.05896 517.589172 860.521606 520.181396 857.703247 520.719177 C 853.901306 521.444702 859.209656 508.671234 873.945007 510.242126 C 877.722229 510.644836 882.861633 513.808411 877.752563 513.199951 C 872.298157 512.550415 868.160156 513.953186 867.369751 514.221252 Z"/><path id="path64" fill="#462e81" fill-rule="evenodd" stroke="none" d="M 819.895691 502.930176 C 819.637024 502.993042 816.874023 504.112244 813.830994 504.08606 C 813.494934 502.985748 811.520142 496.520935 810.512146 490.092957 C 810.045776 487.118652 816.310852 494.296692 819.895691 502.930176 Z"/><path id="path65" fill="#704eb7" fill-rule="evenodd" stroke="none" d="M 1010.215088 495.927094 C 1010.960876 496.027252 1015.542114 496.642395 1019.430237 497.81601 C 1020.901184 498.26001 1022.451416 503.032288 1022.440491 503.095245 C 1022.201538 504.475433 1013.260925 502.111267 1012.485413 501.906219 C 1012.53186 501.787781 1012.279663 501.677917 1012.326111 501.55957 C 1012.384277 501.411346 1013.548523 500.824341 1012.344421 499.400452 C 1010.830566 497.61026 1010.562012 497.754333 1010.214966 495.927185 Z"/><path id="path66" fill="#403e42" fill-rule="evenodd" stroke="none" d="M 792.791016 300.753357 C 791.724304 301.570496 783.823547 308.32196 787.046875 302.515076 C 791.168457 295.090027 806.042542 291.039581 803.001099 294.766907 C 801.73999 296.312439 800.556152 295.517487 792.791016 300.753357 Z"/><path id="path67" fill="#8b88a7" fill-rule="evenodd" stroke="none" d="M 949.150269 330.419434 C 950.030701 330.178131 955.824646 328.590576 959.935364 326.690948 C 962.263306 325.615112 961.548889 327.488373 961.176697 330.531708 C 959.822998 331.590668 954.827271 333.651764 949.707031 334.304901 L 949.597717 333.810791 C 949.209106 330.644897 949.160034 330.692932 949.150269 330.419434 Z"/><path id="path68" fill="#8e89a8" fill-rule="evenodd" stroke="none" d="M 872.680359 330.000336 C 872.611206 329.129364 871.944946 325.71637 873.386902 326.273987 C 876.740234 327.57074 876.545898 328.026703 884.759583 330.199951 C 884.702026 330.549408 884.577759 330.465851 884.520081 330.815582 C 884.47522 331.08783 884.482788 331.068237 884.015991 334.226776 L 883.938171 334.461487 C 875.755554 332.050323 874.656311 332.13385 872.680237 330.000244 Z"/><path id="path69" fill="#fcf5fc" fill-rule="evenodd" stroke="none" d="M 882.078491 316.829254 C 891.492615 318.662872 891.490662 319.976471 891.489502 320.793427 C 891.483582 324.893372 879.871765 320.327301 879.860718 318.632996 C 879.850403 317.047668 881.850891 316.851654 882.078491 316.829254 Z"/><path id="path70" fill="#9590ae" fill-rule="evenodd" stroke="none" d="M 963.859558 351.060822 C 966.923462 362.050415 967.150208 364.80899 967.247559 366.082458 C 965.452637 365.206543 965.500732 365.167847 963.947205 363.889465 C 963.757263 363.68811 962.09613 361.927887 961.563538 361.381927 C 963.064453 359.581818 962.509827 359.38208 962.570679 357.065918 C 962.719482 351.400146 963.872803 351.765472 963.987183 351.562988 C 964.072083 351.412659 963.774536 351.211243 963.859436 351.060913 Z"/><path id="path71" fill="#6d46b9" fill-rule="evenodd" stroke="none" d="M 1063.252197 458.716064 C 1056.991333 464.167358 1054.635986 453.058777 1060.578613 453.2146 C 1065.462524 453.342773 1063.438354 458.263489 1063.252197 458.716064 Z"/><path id="path72" fill="#6c3aec" fill-rule="evenodd" stroke="none" d="M 1041.490845 364.122467 C 1040.98291 358.99884 1045.535645 359.664917 1045.930908 359.83667 C 1051.845459 362.407501 1044.421631 370.518463 1041.490845 364.122467 Z"/><path id="path73" fill="#d12abc" fill-rule="evenodd" stroke="none" d="M 1082.370728 246.610748 C 1081.977783 245.278381 1081.787109 245.267029 1082.341431 244.04007 C 1085.234741 237.63559 1092.391357 246.3255 1086.573853 248.405243 C 1084.12439 249.281006 1084.145874 248.455078 1082.370728 246.610748 Z"/><path id="path74" fill="#d23eac" fill-rule="evenodd" stroke="none" d="M 738.083679 301.490692 C 737.869141 301.326355 736.251221 300.087891 736.32959 298.60318 C 736.381104 297.626831 737.130188 296.266968 738.102356 295.777405 C 743.743958 292.936157 744.723572 303.934692 738.083679 301.490692 Z"/><path id="path75" fill="#6b36ee" fill-rule="evenodd" stroke="none" d="M 750.012817 207.827911 C 748.89978 206.79541 748.355835 206.362457 749.991516 204.930359 C 751.324707 203.762909 751.534912 202.25 752.753662 202.50412 C 756.550232 203.295593 755.839172 211.47525 750.012817 207.827911 Z"/><path id="path76" fill="#4b338b" fill-rule="evenodd" stroke="none" d="M 1010.215088 495.927094 C 1010.562012 497.754333 1010.830688 497.61026 1012.344543 499.40036 C 1013.548645 500.824341 1012.384399 501.411255 1012.326233 501.559448 C 1012.279785 501.677826 1012.531982 501.787659 1012.485535 501.906128 C 1010.825989 501.801147 1004.848816 501.42926 1005.944824 499.849121 C 1008.180359 496.626404 1009.776367 496.07782 1010.215088 495.927094 Z"/><path id="path77" fill="#e2dde9" fill-rule="evenodd" stroke="none" d="M 972.047485 328.110748 C 970.953552 329.956268 970.432678 329.34082 968.772217 330.762268 C 968.68335 330.838257 967.427002 331.913788 967.344543 331.073853 C 967.326721 330.89212 967.440491 330.71521 967.430054 330.532867 C 967.424133 330.428314 967.221558 330.545563 966.750427 329.415161 C 966.681702 329.250397 966.890259 329.049194 966.821594 328.88446 C 967.26416 326.349457 967.380981 325.001312 969.606445 326.339844 C 970.652466 326.968994 971.860779 327.957916 972.047485 328.110657 Z"/><path id="path78" fill="#1c1c1d" fill-rule="evenodd" stroke="none" d="M 1004.854736 425.737366 C 1004.998596 424.625977 1005.071716 423.506012 1005.215576 422.394592 C 1005.974731 416.529053 1007.616577 428.128082 1004.464905 432.420471 C 1002.501038 435.095154 1003.356323 431.829834 1003.394043 431.735413 C 1004.557251 428.820068 1004.292969 428.786133 1004.854736 425.737366 Z"/><path id="path79" fill="#fceffd" fill-rule="evenodd" stroke="none" d="M 895.048706 320.245026 C 895.311829 320.339264 899.687683 321.907013 897.2229 322.980591 C 896.459229 323.313263 893.935364 323.577545 893.37085 322.451691 C 892.503296 320.721558 893.086182 320.280212 895.048706 320.245026 Z"/><path id="path80" fill="#513790" fill-rule="evenodd" stroke="none" d="M 828.293823 550.35553 C 828.289307 550.567932 828.260254 551.901917 825.797729 551.259338 C 824.778564 550.993347 825.397034 548.890137 828.293823 550.35553 Z"/><path id="path81" fill="#5b3c9b" fill-rule="evenodd" stroke="none" d="M 830.135803 550.070068 C 829.325989 549.565002 829.035583 549.710022 829.179688 549.135559 C 829.345825 548.472961 832.553467 548.966797 830.135803 550.070068 Z"/><path id="path82" fill="#f1eef5" fill-rule="evenodd" stroke="none" d="M 865.594666 331.073944 C 866.195984 331.735687 867.279602 331.93573 866.377747 331.93573 C 866.204407 331.93573 866.085144 331.743103 865.968689 331.614929 C 865.821167 331.452728 865.742126 331.236267 865.594666 331.073944 Z"/></g></svg>