<svg xmlns="http://www.w3.org/2000/svg" xml:space="preserve" style="fill-rule:evenodd;clip-rule:evenodd;stroke-linejoin:round;stroke-miterlimit:2" viewBox="0 0 5000 2625"><path d="M0 0h5000v2625H0z" style="fill:url(#a);fill-rule:nonzero"/><text x="554.167" y="1275" style="font-family:&quot;Helvetica&quot;;font-size:350px;fill:#fff">Chirping <tspan x="1935.71px 2169.157px" y="1275px 1275px">As</tspan>tro</text><text x="554.167" y="1608.333" style="font-family:&quot;Helvetica&quot;;font-size:150px;fill:#fff;fill-opacity:.97">A<tspan x="646.012px 687.687px" y="1608.333px 1608.333px"> C</tspan>hirpy-inspired <tspan x="1729.85px 1829.899px" y="1608.333px 1608.333px">As</tspan>tro v6 theme</text><path d="M3822.814 2013.152c-.409 1.005-1.802.586-1.89 13.389-1.152 9.038-1.324 28.679-1.453 34.374-1.124 19.491-1.065 19.37-1.213 21.05-3.953 44.863-116.836 51.161-161.838 43.435-58.737-10.084-52.9-39.866-52.639-51.205 3.346-19.136 5.435-22.61 16.673-37.791 9.335-11.396 10.946-9.629 16.772-17.173 2.085-.487 1.793-.796 24.699-10.309.717-.298 3.498-1.304 3.47-5.368-.259-38.804-.001-39.018-1.762-41.871-4.383-7.103-9.331-6.069-9.192-36.574.08-17.508 6.131-16.396 5.914-24.88-5.352-209.169 12.394-213.178 5.612-227.758-7.112-15.288-5.007-16.076-13.108-30.78-11.57-20.999-2.755-49.133-1.482-53.196 1.73-5.523-4.702-19.719 5.462-90.055 3.53-24.43 9.99-43.587 7.187-44.176-9.282-1.948-136.958 59.31-257.311-50.735-29.396-26.878-26.636-36.53-41.47-42.454-10.059-4.017-22.485-19.023-24.525-31.148-2.238-13.301-9.293-6.99-30.133-21.77-24.414-17.314-16.243-26.142-41.363-42.437-13.246-8.592-57.893-33.857-44.859-59.877 9.448-18.861 32.235-.895 34.397.809 8.423 6.641 3.542-2.714 3.278-2.947-1.509-1.333-44.629-34.556-26.483-57.289 20.825-26.09 53.181 30.138 52.5 18.94-.177-2.915-42.894-43.744-10.386-60.685 24.6-12.82 43.46 38.341 49.464 37.671 3.713-.414-22.021-34.996 2.332-46.996 27.905-13.751 40.182 36.821 63.265 77.43 3.053 5.371 3.462 8.232 5.22 8.333 3.686.212 2.213-20.113 17.665-32.412 16.788-13.362 41.224-.753 36.254 26.298-.861 4.684-7.262 39.524-4.712 59.348.753 5.852 22.471 9.205 29.108 30.595.862 2.779-.316 7.229 4.48 10.787 45.27 33.59 81.568 55.887 190.833 15.776 1.274-.468 16.083-3.171 5.526-6.836-215.481-74.797-339.024-329.527-162.177-566.943 35.502-47.661 100.959-106.96 171.593-138.861 15.72-7.1 15.498-8.99 15.324-10.465-.719-6.12-37.695-65.787-84.068-91.477-37.648-20.856-63.337-24.561-65.751-20.871-42.832 65.486-131.765 5.895-99.688-55.731 25.392-48.784 98.445-36.383 106.743 14.825 1.123 6.929-1.195 9.267 5.553 10.85C3697 457.04 3720.302 560.785 3732.877 558.704c6.089-1.008 100.696-43.249 239.061-22.08 24.517 3.751 70.695 17.144 71.17 17.03 5.732-1.383 40.733-86.173 145.353-118.911.983-.308 11.019-3.448 11.306-6.149.444-4.181-1.427-36.899 30.994-54.933 53.815-29.934 110.629 37.036 70.406 87.406-20.528 25.707-62.289 29.085-85.312 5.1-9.089-9.468-10.865-6.192-23.426-2.263-70.304 21.991-123.112 95.406-118.973 100.623 4.844 6.105 99.89 28.973 186.612 136.967 91.71 114.204 89.591 236.844 91.781 241.488 25.072 53.158-.081 139.859-33.714 162.576-21.274 14.369-10.209 24.16-60.241 77.632-66.401 70.967-150.674 98.263-150.951 99.496-1.99 8.836 78.364 15.259 102.992 150.531 1.999 10.981 22.21 37.801 33.348 92.062 1.492 7.271 19.979 19.326 11.04 51.841-1.428 5.195 31.351 83.074.178 136.972-6.798 11.755-10.299 8.533-18.822 19.244-15.625 19.635-28.665 7.323-33.982 9.88-2.14 1.029-12.667 9.793-26.337 3.034-10.158-5.023-13.06-18.097-10.536-26.062 15.255-48.129 5.901-53.383 4.259-49.742-.136.302-4.773 26.727-26.624 31.109-4.501.903-29.92-1.614-21.62-33.014 6.526-24.689 4.103-24.997 9.384-49.796 1.429-6.709-20.426-21.241-15.207-45.914 1.753-8.288-1.45-15.565-25.664-61.682-7.759-14.778-.622 6.237.612 58.041.297 12.484-1.973 12.761 2.325 23.102 2.993 7.2 6.957 34.696-5.575 53.27-1.386 2.055.336 2.737-11.255 28.864-5.36 12.081 11.536 51.664 5.806 204.758-.597 15.954-3.913 16.553 2.785 31.089 4.23 9.18 4.121 40.147-3.269 48.965-5.606 6.69-4.262 8.163-5.148 38.599-.031 1.066-.35 12.039 1.831 13.2 10.537 5.607 17.481 6.972 19.084 7.288 5.501 9.658 8.312 7.097 14.823 16.044 18.902 21.473 18.43 36.43 19.713 45.724-1.289 25.256-7.529 42.373-69.066 49.547-55.192 6.434-98.819-10.785-106.837-13.95-35.922-14.178-34.271-23.266-35.361-54.776-.437-30.641-.576-30.577-1.071-34.481.508-6.989.378-6.906-.832-13.697.219-.98 2.582-45.108-3.362-51.136-12.52-12.697-8.719-44.072-5.419-51.71 2.995-6.932 4.6-10.647-9.395-93.921-4.015-23.888-3.637-25.767-8.009-25.527-3.833.211-7.645.709-11.473 1.005-22.82 1.76-35.288-4.086-36.424 1.607-2.669 13.376-16.654 108.376-14.798 112.745 1.449 3.41 9.832 23.141 2.002 46.268-3.177 9.383-7.603 9.435-7.901 15.162-2.125 40.888-1.559 42.465-.319 45.923v-.001Z" style="fill:#050505"/><path d="M3307.748 1995.703c2.376-1.289 53.883-10.112 59.56.241 2.142 3.906 1.688 4.079 25.809 49.34 4.582 8.597 4.762 10.522 14.349 9.203 137.158-18.86 171.068-17.931 206.755-20.983 3.931-.336 4.061-.196 6.232 2.899-11.237 15.181-13.326 18.655-16.673 37.791-5.001 1.606-5.824-2.666-64.396 12.829-143.334 37.92 71.879 95.208 400.162 84.314 146.815-4.872 287.417-33.274 252.17-67.802-12.994-12.728-57.903-22.164-60.637-23.446-1.284-9.295-.812-24.251-19.713-45.724 6.701-3.106 7.081-2.798 92.214 4.405 320.97 27.159 408.055 97.01 409.971 98.276 1.244.822.951.945 2.093 1.701 3.414 2.261 2.948 3.004 3.276 2.883 1.135-.42 1.436-2.143 2.572-2.563 9.43 23.916-1.556 40.117-64.119 66.597-106.348 45.012-361.678 73.142-415.014 74.839-4.087.13-319.392 25.991-646.844-8.356-235.513-24.703-427.002-79.278-380.839-136.601a102 102 0 0 1 3.521-4.141c1.901.62.404 2.152 2.304 2.771.18.059.202.066 1.914-1.395 5.751-4.91 6.103-4.08 12.993-7.482 11.681-5.768 64.695-31.947 155.479-48.397 6.894-1.249 7.451 4.842 15.795-.056.171-.125 7-3.189 5.494-8.335-2.983-10.191-.995-10.276 10.494-51.774 2.133-7.704-2.074-8.386-14.92-21.035Z" style="fill:#7245c3"/><path d="M4007.973 1118.398c-109.25-67.857-101.98-183.057-73.303-243.477 54.377-114.568 192.2-121.707 258.491-45.56 138.364 158.935-16.127 384.589-185.188 289.037" style="fill:#f7f6f9"/><path d="M3753.692 1346.933c122.439 35.308 220.612 7.498 245.922 1.287l.536 1.508c1.914 58.816 40.012 98.153 43.209 102.337-5.511 14.878 18.622 57.871-7.802 147.846-1.146 3.904-1.121 4.12 1.483 7.17-10.228 3.16-67.844 20.963-131.927 22.434-4.833.111-6.323-4.121-11.682-8.43-33.021-26.551-62.949 1.74-66.847 5.425-9.023 8.53-125.108-13.089-152.842-32.755-14.464-10.256 2.58-115.929 9.489-129.788 9.061-2.319 59.531-38.848 70.46-117.034Z" style="fill:#fcfbfc"/><path d="M3583.091 800.916c176.807-99.167 321.632 102.746 217.509 255.911-21.297 31.328-53.625 50.242-55.861 51.734-.788-.609.383-4.924-9.886-2.192-139.737 37.185-278.297-126.763-161.603-287.886 3.791-5.235 3.416-5.28 6.926-9.055 2.744-2.952 4.064-1.8 5.35-5.554.758-2.213-3.206-.705-2.435-2.958" style="fill:#fcfcfc"/><path d="M4039.174 1702.467c12.424-5.4 18.231-18.672 19.12-5.095 3.268 49.881 9.511 83.893 4.138 202.881-.122 2.693 4.485 11.035-34.984 18.306-41.386 7.624-95.334-.897-96.992-12.679-1.356-9.634-16.71-118.718-15.939-120.559.095-.226 19.055-13.653 28.679-23.037 21.448-20.912-52.738 37.156-147.296-5.177-12.604-5.643 7.28 14.84 17.744 21.95 8.691 5.904 11.83 5.251 10.352 15.811-7.638 54.597-7.806 54.437-14.308 109.221-2.946 24.824-128.842 18.808-131.066-1.873-1.307-12.148-4.582-107.813 2.871-183.757 2.188-22.291 1.646-31.234 5.723-27.52 8.908 8.114 18.282 11.975 12.825 4.692-20.542-27.41-21.251-38.548-18.832-37.831 3.282.973 11.083 6.935 36.516 14.089 88.342 24.848 97.993 8.968 110.928 21.577 21.261 20.724 51.394 19.037 69.745-.931 7.084-7.708 60.084 1.954 144.462-27.785 15.89-5.6 21.87-10.792 19.281-3.709-5.966 16.324-20.349 34-22.522 36.67-1.672 2.055-.849 2.164-.446 4.756z" style="fill:#f7f5f9"/><path d="M3819.47 2060.915c7.532 1.81 7.646-1.215 96.819 1.416.304.009.261-.105 3.525-1.419 1.091 31.51-.561 40.597 35.361 54.776 8.017 3.165 51.645 20.384 106.837 13.95 61.538-7.174 67.777-24.291 69.066-49.547 2.734 1.282 47.644 10.717 60.637 23.446 35.247 34.528-105.354 62.93-252.17 67.802-328.283 10.894-543.496-46.394-400.162-84.314 58.572-15.496 59.395-11.223 64.396-12.829-.262 11.339-6.098 41.12 52.639 51.205 45.002 7.726 157.884 1.428 161.838-43.435.148-1.68.09-1.559 1.213-21.05Z" style="fill:#442a84"/><path d="M3806.225 968.31c-14.359 139.488-203.584 137.92-214.247 1.815-7.938-101.32 126.4-166.864 195.55-70.175 18.911 26.441 18.726 62.69 18.697 68.359Zm344.524 36.582c-56.516 121.904-214.497 65.665-205.378-50.018 8.746-110.951 160.463-144.803 206.576-32.525 15.312 37.283 1.065 76.338-1.198 82.542Z" style="fill:#060606"/><path d="M3718.167 600.606c4.188 10.603 18.643 44.22 14.065 47.183-5.312 3.437-84.697 35.287-137.933 120.951-.281.453-2.071 3.333-4.78 4.642-22.569 10.908-25.374 14.981-34.106 21.41-91.403 77.363-101.163 189.122-43.21 281.047 5.797 9.195 14.277 36.457 52.863 63.866 11.6 8.24 15.15 3.669 23.081 15.587 18.776 28.213 55.073 62.721 97.378 85.749 8.735 4.755 12.317 3.101 10.799 8.442-.233.818-1.18.05-7.222 7.807-.439-.501.452-1.496.013-1.997-.118-.135-106.334-34.08-171.517-127.509-116.529-167.027-38.145-390.155 147.771-501.032 11.207-6.683 41.54-25.488 52.799-26.146z" style="fill:#bea4e2"/><path d="M4083.264 1316.144c51.36 29.774 122.59 118.572 141.989 207.029 2.589 11.806-23.92-7.435-84.408 27.451-7.17 4.135-9.61 8.491-12.902.916-30.665-70.581-39.518-65.589-47.751-82.336-.3-.61-14.29-56.084-15.521-60.964-15.816-62.713-3.622-84.403-3.592-84.511.961-.298 2.018.78 2.979.482.394-.122-.295-.757 4.102-3.125 7.998-4.308 12.166-2.932 13.011-3.178.876-.255 1.217-1.509 2.093-1.764" style="fill:#f7f5f9"/><path d="M3675.441 1310.205c2.714 2.686 2.141 3.163 5.308 5.253 10.472 6.908 9.969 23.396 12.544 29.882-4.167 20.348-4.067 20.179-9.515 40.33-7.537-1.638-8.27 2.285-19.96 7.022-23.567 9.548-106.241 46.402-187.833-2.589-21.546-12.937-33.469-26.283-49.926-45.656 6.239-4.743 26.275-16.642 42.053-45.48 1.072-1.959 3.304-10.049 7.614-6.357 79.806 68.37 168.712 22.93 199.716 17.596Z" style="fill:#fdfcfd"/><path d="M4049.662 604.197c2.679.798 59.027 20.976 104.279 57.822 5.097 4.15 98.273 69.964 135.148 195.393 9.76 33.2 10.444 50.525 12.232 55.604-35.322 11.948-29.389 34.31-36.464 30.409-.871-.48-2.368-21.99-8.053-40.097-21.911-69.787-51.667-86.459-56.319-96.148-2.432-5.064-19.084-39.744-35.683-60.475-61.007-76.192-108.559-89.828-127.22-100.621-5.352-3.095 9.472-35.591 12.079-41.888Z" style="fill:#efe2f4"/><path d="M3771.354 1317.719c-4.519-1.198-41.297-10.946-55.189-19.228-17.949-10.701-14.283-27.056-11.409-31.325 9.422-13.997 30.126-1.97 32.255-1.201 16.434 5.941 102.184 36.938 217.745 17.395 76.292-12.903 84.643-28.698 99.752-22.568 9.156 3.715 30.424 34.618-61.537 56.875-106.161 25.694-204.309 3.896-221.617.052h.001Z" style="fill:#9524d0"/><path d="M4026.956 585.212c-14.867 32.487-14.781 35.97-18.665 46.153-3.787 9.931-93.091-44.716-243.13 3.115-7.615 2.428-5.975-11.26-20.691-43.26 12.161-12.102 91.848-28.031 135.757-28.992 79.243-1.733 136.958 18.278 141.69 19.011.609.094 1.359-.237 1.844.144 1.306 1.029 1.89 2.799 3.196 3.827Z" style="fill:#f0e8f6"/><path d="M3583.091 800.916c-.772 2.253 3.192.745 2.435 2.958-1.286 3.754-2.605 2.602-5.35 5.554-3.509 3.775-3.134 3.82-6.926 9.055-116.694 161.123 21.865 325.071 161.603 287.886 10.268-2.732 9.098 1.583 9.886 2.192-65.773 39.384-165.943 38.456-223.186-57.491-43.356-72.671-35.326-187.965 61.538-250.154" style="fill:#e6e0ee"/><path d="M3718.167 600.606c-11.259.658-41.592 19.463-52.799 26.146-185.916 110.876-264.3 334.005-147.771 501.032 65.182 93.429 171.399 127.374 171.517 127.509.439.501-.452 1.496-.013 1.997-4.387 9.792-5.137 11.285-8.064 10.27-158.496-54.965-284.402-228.81-212.707-427.683 60.7-168.374 202.444-235.349 239.722-252.313 4.591-2.089 7.488 7.348 10.114 13.042Z" style="fill:#f9f9fa"/><path d="M3841.883 638.314c9.728-.978 189.347-28.692 302.285 119.523.928 1.218.961 6.203-3.749 1.96-65.357-58.865-246.1-148.342-439.564-48.956-53.968 27.724-109.03 83.273-66.86 39.672 10.862-11.23 35.183-40.71 66.928-60.734 60.08-37.898 99.244-45.477 140.962-51.465Z" style="fill:#4f4d51"/><path d="M3426.058 1344.447c16.457 19.372 28.38 32.719 49.926 45.656 81.593 48.991 164.267 12.137 187.833 2.589 11.69-4.736 12.423-8.66 19.96-7.022-11.662 45.645-12.794 45.902-16.133 47.183-170.758 65.525-277.466-64.996-274.585-71.893 1.138-2.724 3.345.462 32.999-16.512Z" style="fill:#dbd5e6"/><path d="M3842.673 1477.547c-4.763 13.433-8.263 25.912-12.204 26.522-44.399 6.876-46.087 7.348-47.289 3.749-.403-1.207 44.381-116.153 51.279-120.188 2.409-1.409 53.767-9.381 59.264 5.435 41.104 110.775 49.24 119.214 38.236 117.919-3.394-.399-3.222-1.389-42.226-6.448-13.893-1.802-20.398-101.417-37.863-53.899-1.712 4.658-8.472 24.754-9.198 26.911Z" style="fill:#050505"/><path d="M4096.543 2018.324c97.123 3.733 130.147 12.878 135.355 7.737 34.22-33.776 37.852-31.724 59.9-27.017 25.119 5.363 29.027 1.392 42.643 23.266 12.433 19.973 12.939 20.089 14.919 20.542 9.097 2.081 9.264.408 114.433 22.602 12.56 2.65 98.24 25.886 135.433 51.782 12.95 9.017 12.616 9.274 22.264 21.834-1.135.42-1.436 2.143-2.572 2.563-.327.121.138-.622-3.276-2.883-1.141-.756-.848-.879-2.093-1.701-1.916-1.266-89.001-71.118-409.971-98.276-85.133-7.203-85.513-7.511-92.214-4.405-6.511-8.947-9.321-6.386-14.823-16.044Z" style="fill:#36206d;fill-opacity:.99"/><path d="M3307.748 1995.703c-4.869 4.42-8.124 10.498-23.331 40.062-2.46 4.783-3.739 3.31-22.372 9.703-2.135.733-5.619 1.928-12.901 25.099-.354 1.126.478 2.826 14.747-.609 23.386-5.63 27.249-11.627 42.789 6.888-8.344 4.898-8.9-1.193-15.795.056-90.785 16.45-143.799 42.629-155.479 48.397-6.89 3.402-7.241 2.572-12.993 7.482-1.712 1.462-1.734 1.454-1.914 1.395-1.9-.62-.403-2.151-2.304-2.771 34.61-35.35 110.381-48.312 114.587-55.418 3.739-6.317 8.034-35.329 21.969-41.211 13.819-5.833 16.686-2.886 23.647-16.355 15.264-29.533 13.866-36.082 46.915-39.101 47.045-4.296 48.789 1.437 60.343 22.801 20.553 38.003 21.024 38.46 23.741 38.559 21.726.788 32.565-10.043 227.828-21.451-5.826 7.544-7.437 5.777-16.772 17.173-2.171-3.096-2.301-3.236-6.232-2.899-35.687 3.052-69.597 2.123-206.755 20.983-9.587 1.318-9.768-.606-14.349-9.203-24.122-45.262-23.667-45.435-25.809-49.34-5.677-10.353-57.184-1.529-59.56-.241Z" style="fill:#331e6b;fill-opacity:.99"/><path d="M4272.521 1111.68c-22.741 33.674-63.501 90.058-158.46 132.983-2.557 1.156-27.5 12.432-32.626 12.861-.902.076-1.938-.857-2.692-.356-.559.371.771 1.631.211 2.002-4.064-5.419-4.718-4.672-9-9.785-4.43-5.289 23.304-9.35 65.98-46.54 39.996-34.855 39.209-49.979 56.01-58.934 36.727-19.575 52.821-56.798 55.485-62.96 3.41-7.886 3.529 14.823 19.749 26.397 3.912 2.792 3.637 2.948 5.343 4.331Z" style="fill:#4119ab"/><path d="M4055.788 591.046c5.436-9.175 5.152-9.326 5.869-9.905 4.571-3.694 237.69 80.926 269.552 331.629.682 5.365-4.158 2.002-15.059-1.086-.213-2.545-1.333-15.91-5.102-31.511-52.329-216.607-229.616-273.828-252.84-286.306-1.091-.586-1.328-2.234-2.419-2.821Z" style="fill:#faf9fa"/><path d="M4055.788 591.046c1.091.586 1.328 2.234 2.419 2.821 23.225 12.479 200.511 69.699 252.84 286.306 3.769 15.601 4.889 28.966 5.102 31.511-7.573-.015-7.409.024-14.828 1.333-1.788-5.078-2.471-22.403-12.232-55.604-36.875-125.43-130.051-191.243-135.148-195.393-45.253-36.846-101.601-57.024-104.279-57.822 2.331-5.147 1.864-5.265 6.125-13.151Z" style="fill:#d5b1ea"/><path d="M3922.381 1675.246c-9.578.499-15.589 3.745-13.496-6.581 3.374-16.643-2.908-24.362 1.96-24.892 9.864-1.074 35.211-.625 97.473-13.953 29.431-6.3 67.92-25.637 68.611-25.329 3.108 1.382 1.478 26.921-3.973 30.907-43.436 31.766-138.149 38.911-150.575 39.849Z" style="fill:#a42bd8"/><path d="M4306.834 970.098c8.127-13.642 7.743-13.738 10.393-16.511 29.291-30.664 37.605 55.798 15.664 106.129-30.298 69.503-57.189-13.875-26.057-89.618" style="fill:#a02ed8"/><path d="M3815.854 1651.545c-.382 9.691-1.159 9.635.635 19.143.163.866.751 3.922-3.233 3.604-11.648-.929-104.119-8.304-141.429-36.516-1.995-1.508-8.596-6.5-7.66-30.308.321-8.161 18.394 10.818 72.449 23.305 31.382 7.249 78.992 11.921 80.023 13.305.359.481-.057.542-.787 7.466Z" style="fill:#ae63da"/><path d="M3755.833 1330.249c118.802 29.871 215.233 7.888 244.936 1.081-1.237 8.455-.86 8.35-1.154 16.89-25.31 6.211-123.483 34.021-245.922-1.287.157-1.336 1.594-13.559 2.141-16.684Z" style="fill:#c4bfd5"/><path d="M4026.956 585.212c-1.306-1.029-1.89-2.799-3.196-3.827-.484-.382-1.235-.05-1.844-.144-4.732-.733-62.446-20.745-141.69-19.011-43.909.96-123.596 16.89-135.757 28.992-3.047-7.719-6.46-6.858-5.252-15.083.269-1.831 125.291-56.704 286.317-9.251 11.285 3.326 6.387 7.595 1.422 18.325Z" style="fill:#f9f9f9"/><path d="M3991.231 1935.71c39.555-1.729 44.449-2.053 74.762-14.093 7.876-3.128 4.85 27.235-1.955 30.462-40.535 19.222-133.843 14.749-139.167-6.082-6.169-24.135 1.527-23.589 3.241-22.894 30.355 12.295 31.951 11.067 63.119 12.608Z" style="fill:#8956ce"/><path d="M3688.693 1925.583c77.692 23.344 124.18-4.243 126.006-3.402 2.61 1.203 2.2 27.106-5.671 30.843-42.255 20.061-130.327 7.241-135.456-6.872-2.45-6.741-4.982-28.229 1.601-25.888 1.095.39.814.517 13.52 5.319" style="fill:#8a58cd"/><path d="M3715.034 1331.677c1.047.521-.109 3.232 38.659 15.257-10.93 78.187-61.399 114.715-70.46 117.034 1.575-22.429 23.557-78.352 31.802-132.291Z" style="fill:#aca4c1"/><path d="M3829.898 1643.517c23.316-40.848 74.182-15.008 68.777 19.356-8.761 55.706-90.116 32.167-68.777-19.356" style="fill:#a36bdc"/><path d="M4311.453 947.813c-.577-1.229-2.629-1.283-3.206-2.513-.132-.281 2.152.196.635-3.823-5.53-14.652-33.619 18.167-15.346 18.449 3.568.055 7.025-5.149 7.489-5.057 1.249.247 1.707 2.17 2.956 2.416-2.27 5.103-10.163 17.581-15.45 45.562-.767 4.061-5.616 29.726-3.001 51.578 4.618 38.587 21.925 39.051 14.076 42.487-47.893 20.96-50.185-103.625-10.916-154.786 22.993-29.956 45.911-3.792 37.513-2.305-10.559 1.869-10.833 4.86-14.75 7.992" style="fill:#a52ad7"/><path d="M4272.521 1111.68c1.894.459 16.184 1.649 12.553 7.268-19.05 29.481-54.465 81.298-142.826 128.391-19.018 10.136-54.608 23.082-57.224 23.612-1.014.205-2.41.591-6.07-11.781.559-.371-.771-1.631-.211-2.002.755-.5 1.79.432 2.692.356 5.126-.43 30.07-11.705 32.626-12.861 94.959-42.926 135.718-99.309 158.46-132.983" style="fill:#f8f8fa"/><path d="M4039.621 1335.656c-4.567 53.998 12.127 81.764 19.324 127.829-2.139-.849-2.85.281-15.584-11.42-3.197-4.184-41.295-43.521-43.209-102.337 9.281-5.929 22.332-6.435 39.469-14.072" style="fill:#a8a0be"/><path d="M4157.976 2209.832c31.366-29.686 120.393-23.618 135.511.207-20.606 20.193-112.597 20.968-135.511-.207" style="fill:#4f2f96"/><path d="M3449.673 1257.204c2.449 2.049 24.759 13.624-2.778 49.125-17.652 22.757-63.495 55.805-81.232 34.926-.871-1.025-11.848-13.947-6.246-15.617 6.18-1.843 32.371-4.215 63.026-36.273 23.425-24.497 17.23-39.192 27.231-32.161Z" style="fill:#9262d3"/><path d="M3820.923 2026.541c26.493-1.138 26.404-.479 97.82-.109.495 3.904.635 3.84 1.071 34.481-3.264 1.314-3.221 1.428-3.525 1.419-89.173-2.631-89.287.393-96.819-1.416.129-5.696.301-25.336 1.453-34.374Z" style="fill:#673bbb"/><path d="M4043.36 1452.065c12.734 11.701 13.446 10.571 15.584 11.42 6.243 14.734 15.543 89.987 13.342 117.197-.737 9.113 1.379 14.318-35.245 26.399-2.603-3.05-2.629-3.267-1.483-7.17 26.423-89.975 2.291-132.967 7.802-147.846" style="fill:#dbd5e7"/><path d="M4197.974 1542.69c6.241-.899 18.362-4.204 34.361-.253 8.514 2.103 9.158 22.685 6.567 25.54-1.468 1.618-54.545-.315-94.128 28.591-1.344.982-7.149 9.407-13.044-8.536-8.719-26.539 50.92-41.344 66.245-45.343Z" style="fill:#9363d3"/><path d="M4356.559 2159.108c12.905-20.261 97.113-27.715 129.848 2.551-29.42 21.224-111.85 15.42-129.848-2.551" style="fill:#4f2e96"/><path d="M3307.748 1995.703c12.846 12.65 17.053 13.331 14.92 21.035-11.49 41.498-13.477 41.583-10.494 51.774 1.506 5.145-5.324 8.209-5.494 8.335-15.541-18.515-19.403-12.518-42.789-6.888-14.269 3.435-15.101 1.736-14.747.609 7.283-23.171 10.766-24.367 12.901-25.099 18.633-6.393 19.912-4.92 22.372-9.703 15.207-29.564 18.463-35.642 23.331-40.062Z" style="fill:#502f98"/><path d="M3891.988 1173.731c45.114-21.347 30.091-44.936 41.886-46.238 10.034-1.107 5.47 13.523 5.099 14.712-19.329 61.957-124.426 70.859-142.276-3.746-2.534-10.59 8.911-14.705 10.424-7.418 9.147 44.073 48.406 54.622 84.868 42.689Z" style="fill:#363436"/><path d="M3854.261 1576.625c-.406-2.101-2.742-31.57-20.268-15.492-1.638 1.503-10.535 5.596-13.111-24.5-1.43-16.706 10.49-5.046 17.512-2.846 43.016 13.481 62.107-16.262 60.901-.988-2.642 33.465-16.033 27.481-23.025 32.366-7.056 4.93-10.957 43.321-22.009 11.46" style="fill:#e735d5"/><path d="M4157.976 2209.832c-28.954-34.229 114.808-50.111 139.156-14.715 4.448 6.466-2.796 14.034-3.645 14.922-15.118-23.826-104.145-29.893-135.511-.207" style="fill:#2e1a63"/><path d="M4356.559 2159.108c-4.745-3.974-6.314-3.885-4.863-9.944 8.445-35.268 165.669-23.528 134.711 12.495-32.734-30.266-116.943-22.813-129.848-2.551" style="fill:#2f1c67"/><path d="M3229.335 2164.924c26.97-23.547 91.04-16.85 101.855-.001-17.015 14.433-81.781 15.969-101.855.001" style="fill:#492c90"/><path d="M4079.118 2032.566c3.724 2.37 30.157 19.188 31.016 45.643.238 7.308-10.376 9.106-12.077 3.997-.042-.127-2.756-23.036-32.576-35.748-38.083-16.235-63.377 2.028-66.513-.871-5.583-5.16 10.949-14.806 26.805-18.693 25.67-6.293 49.406 3.969 53.345 5.672" style="fill:#464446"/><path d="M3652.319 2033.877c3.709-2.029 26.554-14.526 51.942-9.713 16.036 3.04 32.934 12.835 26.671 17.634-2.656 2.035-70.002-20.481-92.717 36.009-2.129 5.294-13.976 6.521-14.442-1.513-1.292-22.288 25.155-40.129 28.546-42.416Z" style="fill:#454345"/><path d="M4008.756 935.12c-30.517-20.489-8.205-46.272 7.31-47.575 40.002-3.359 33.959 62.279-7.31 47.575" style="fill:#fafafb"/><path d="M3652.628 933.634c-24.93-20.437-4.342-44.056 9.486-45.484 45.044-4.652 30.653 67.889-9.486 45.484" style="fill:#fafafa"/><path d="M3876.989 1675.05c-29.93 25.416-53.245-32.519-17.661-38.128 17.564-2.769 35.844 19.072 17.661 38.128" style="fill:#fcfbfd"/><path d="M3229.335 2164.924c-29.239-28.72 93.817-39.049 106.582-11.746 2.703 5.781-3.937 11.111-4.728 11.745-10.815-16.849-74.885-23.546-101.855.001Z" style="fill:#2c1a63"/><path d="M3822.814 2013.152c5.779 1.007 90.875.808 95.097-.418 1.209 6.791 1.34 6.708.832 13.697-71.416-.369-71.327-1.029-97.82.109.088-12.803 1.481-12.384 1.89-13.389Z" style="fill:#301d6c;fill-opacity:.98"/><path d="M4128.585 1328.486c-6.464-5.694-12.081-11.097-25.127-20.614-8.434-6.153-15.821-8.972-15.988-9.102-6.116-4.757 6.791-5.124 37.15 12.918 35.725 21.231 59.618 77.123 59.72 77.578.084.373-.873 5.507-4.72-.782-11.044-18.053-17.57-26.947-51.036-59.998Z" style="fill:#a14ada"/><path d="M4311.549 2016.168c-.587.557-6.511 4.606-14.137 19.036-22.867-3.045-22.734-2.923-45.804-5.23-7.42-.742 5.853-9.908 15.668-18.14 6.226-5.221 16.465-1.692 44.273 4.335Z" style="fill:#7442c2"/><path d="M3329.326 1209.574c2.187-2.065 10.209-11.395 26.976-18.368.976-.406 12.315-5.122 12.899 2.862.296 4.041-10.855 8.252-10.863 8.256-31.277 16.339-38.571 50.967-46.05 44.681-9.92-8.338 14.801-35.017 17.038-37.43Z" style="fill:#1d1c1d"/><path d="M3839.995 2233.348c-27.661-24.544 80.504-30.12 63.338-1.933-.114.188 0 0-2.013 1.87-24.35-19.182-55.846-7.22-61.326.063Z" style="fill:#2f1c67"/><path d="M3839.995 2233.348c5.479-7.283 36.976-19.245 61.326-.063-30.145 17.433-57.745 2.515-61.326.063" style="fill:#4b2e90"/><path d="M4000.769 1331.33c14.805-4.412 23.335-6.593 38.261-12.966 5.178-2.21 3.235 2.315.59 17.291-17.137 7.638-30.188 8.143-39.469 14.072l-.536-1.508c.294-8.54-.083-8.435 1.154-16.89Z" style="fill:#7f7a9d"/><path d="M3499.686 2199.516c-14.228-13.047-44.599-10.805-55.675.855-2.65-1.826-3.072-1.289-3.846-3.551-8.157-23.811 82.423-21.259 59.521 2.696" style="fill:#2f1c67"/><path d="M3755.833 1330.249c-.546 3.125-1.983 15.347-2.141 16.684-38.768-12.024-37.612-14.736-38.659-15.257.962-12.093.9-12.022 1.039-13.061.44-3.285 2.411-1.062 39.76 11.633Z" style="fill:#837ca2"/><path d="M3499.686 2199.516c-19.164 12.838-46.626 6.725-55.675.855 11.076-11.659 41.447-13.901 55.675-.855" style="fill:#4b2c91"/><path d="M3386.482 2114.59c-11.127-25.004 71.743-18.16 51.701-.001-.569-.289-1.173 1.083-1.741.794-.312-.158-1.847-4.684-15.526-6.407-18.375-2.314-26.035 3.397-34.433 5.614Z" style="fill:#311c6b"/><path d="M3377.129 1224.772c12.546-28.873 26.999-23.708 27.783-22.448 3.14 5.047-1.003 4.294-6.462 9.459-17.686 16.73-12.52 36.402-16.057 39.315-1.658 1.365-12.283 2.58-5.263-26.325Z" style="fill:#464345"/><path d="M3331.202 1165.284c-3.071 1.286-3.897 2.526-7.75-1.933-22.194-25.683-19.24-37.719-38.316-35.866-4.842.47-8.555-6.855-3.619-11.596 8.495-8.16 24.646 13.381 26.098 15.318 12.514 16.69 11.349 17.331 23.587 34.077" style="fill:#1d1b1c"/><path d="M4242.036 2110.486c-21.933-18.073 55.799-22.784 48.845-3.839-1.188 3.238-1.858 2.582-4.854 4.513-15.255-14.257-40.053-3.738-40.068-3.719-.959 1.18-1.081 3.017-2.283 3.95-.494.383-1.148-1.288-1.641-.905Z" style="fill:#361e6f"/><path d="M3742.307 1280.888c15.202 4.436 42.28 9.898 32.656 18.422-6.901 6.111-55.894-10.205-37.97-18.416.854-.392 4.891-.042 5.315-.006Z" style="fill:#fcf5fc"/><path d="M3386.482 2114.59c8.398-2.217 16.058-7.927 34.433-5.614 13.679 1.722 15.215 6.249 15.526 6.407.569.289 1.173-1.083 1.741-.794-17.757 9.649-37.349 8.895-51.701.001Z" style="fill:#4b2c92"/><path d="M3675.441 1310.205c1.595-.841 22.627-11.94 22.498-1.291-.12 9.942.038 17.384-4.647 36.425-2.575-6.486-2.072-22.973-12.544-29.882-3.167-2.089-2.593-2.567-5.308-5.253Z" style="fill:#8d86a6"/><path d="M4199.721 1732.206c.098-1.234-1.675-1.43.328-4.114 19.002-25.47 13.723-44.052 17.584-51.466.31-.596 6.38-7.208 6.395 5.449.042 35.115-20.513 47.791-24.307 50.131" style="fill:#3b3939"/><path d="M3621.687 2210.217c1.178-1.876 7.527-11.994 27.048-5.941 24.257 7.521-23.184 24.236-27.048 5.941" style="fill:#462b8b"/><path d="M4311.549 2016.168c5.905 2.106 5.561 3.933 9.666 9.71.672.945 8.044 11.321 7.905 12.153-.42 2.512-1.653 1.557-31.708-2.827 7.626-14.429 13.55-18.479 14.137-19.036" style="fill:#5832a5"/><path d="M4242.036 2110.486c.494-.383 1.148 1.288 1.641.905 1.202-.932 1.323-2.77 2.283-3.95.015-.019 24.812-10.538 40.068 3.719-11.768 6.405-32.922 5.979-43.992-.674" style="fill:#4d2c94"/><path d="M3282.752 1229.128c-7.639 9.535-9.285 1.313-24.784-7.441-17.043-9.625-25.127-5.621-20.962-12.432 6.382-10.435 29.647 12.653 45.746 19.872Z" style="fill:#1d1c1d"/><path d="M4311.453 947.813c-4.097 4.611-4.01 4.487-7.472 9.472-1.249-.247-1.707-2.17-2.956-2.416-.464-.092-3.921 5.112-7.489 5.057-18.274-.282 9.816-33.101 15.346-18.449 1.517 4.019-.767 3.542-.635 3.823.577 1.229 2.629 1.283 3.206 2.513" style="fill:#f090f2"/><path d="M3352.395 2035.607c9.414 9.071 11.702 8.53 11.975 21.587.158 7.544-7.688 7.571-10.677.098-.661-1.653-6.433-16.084-6.818-21.182-.312-4.125 1.932-2.45 5.519-.503Z" style="fill:#55319e"/><path d="M3482.092 403.374c-19.37.94-1.584-23.095 7.47-12.825 5.64 6.397-6.404 12.302-7.47 12.825" style="fill:#302f31"/><path d="M4232.244 386.367c11.701-4.92 11.428 6.81 9.498 9.528-6.394 9.003-22.093 2.004-9.498-9.528" style="fill:#343335"/><path d="M4083.264 1316.144c-.876.255-1.217 1.509-2.093 1.764-.844.246-5.013-1.13-13.011 3.178-4.397 2.369-3.708 3.003-4.102 3.125-.961.298-2.018-.78-2.979-.482 4.354-22.984 15.719-12.481 22.184-7.586Z" style="fill:#9993ad"/><path d="M3792.17 1306.211c-13.838-2.781-6.963-15.057 2.11-11.069.53.233 4.395 1.932 3.841 6.135-.39 2.953-5.369 4.727-5.952 4.935Z" style="fill:#fcf6fd"/><path d="M4245.394 1697.104c-7.635.612-3.16-3.741-2.222-11.255 1.387-11.109-.62-16.411 4.103-12.966 4.152 3.028-1.349 22.352-1.881 24.221" style="fill:#323031"/><path d="M4319.791 959.94c8.421-5.304 8.848 4.65 5.417 9.586-2.97 4.272-14.793 2.395-5.417-9.586" style="fill:#f9dafc"/><path d="M3273.257 1127.318c-.319-4.052-.668-4.231-.343-4.361.922-.369 2.515.475 2.593 1.464.096 1.219-2.346 1.678-2.25 2.897" style="fill:#080601"/><path d="M3246.634 984.831c-15.57 2.744-32.911 22.758-35.295 40.712-.103.613-.908.613-1.006 0-2.379-17.948-19.725-37.968-35.295-40.712-.532-.119-.532-1.048 0-1.161 15.57-2.75 32.916-22.752 35.295-40.718.103-.613.908-.613 1.006 0 .785 5.915 3.192 12.052 6.622 17.721 6.989 11.549 18.23 21.156 28.678 22.996.532.119.527 1.048 0 1.161" style="fill:#ae35be;fill-rule:nonzero"/><path d="M4409.539 1287.823c-15.57 2.744-32.911 22.758-35.295 40.712-.103.613-.908.613-1.006 0-2.379-17.948-19.725-37.968-35.295-40.712-.532-.119-.532-1.048 0-1.161 15.57-2.75 32.916-22.752 35.295-40.718.103-.613.908-.613 1.006 0 .785 5.915 3.192 12.052 6.622 17.721 6.989 11.549 18.23 21.156 28.678 22.996.532.119.527 1.048 0 1.161" style="fill:#623bb5;fill-rule:nonzero"/><circle cx="4442.347" cy="712.903" r="14.021" style="fill:#ea40d7"/><circle cx="3483.353" cy="1652.808" r="14.021" style="fill:#ea40d7"/><circle cx="3497.942" cy="1869.537" r="8.247" style="fill:#623bb5"/><circle cx="3274.683" cy="1458.774" r="9.072" style="fill:#623bb5"/><circle cx="3316.632" cy="623.933" r="7.423" style="fill:#623bb5"/><circle cx="4508.614" cy="998.233" r="14.021" style="fill:#623bb5"/><circle cx="4574.714" cy="1566.722" r="9.072" style="fill:#623bb5"/><path d="M4385.687 1818.9c11.698 0 21.195 9.497 21.195 21.195s-9.497 21.195-21.195 21.195-21.195-9.497-21.195-21.195 9.497-21.195 21.195-21.195m0 10.597c5.849 0 10.597 4.749 10.597 10.597 0 5.849-4.749 10.597-10.597 10.597-5.849 0-10.597-4.749-10.597-10.597 0-5.849 4.749-10.597 10.597-10.597" style="fill:#ea40d7"/><defs><linearGradient id="a" x1="0" x2="1" y1="0" y2="0" gradientTransform="rotate(27.7)scale(5647.1785)" gradientUnits="userSpaceOnUse"><stop offset="0" style="stop-color:#3b82f6;stop-opacity:1"/><stop offset="1" style="stop-color:#1e40af;stop-opacity:1"/></linearGradient></defs></svg>